M48
; DRILL file {KiCad (6.0.4)} date Fri Apr 22 20:24:59 2022
; FORMAT={-:-/ absolute / inch / decimal}
; #@! TF.CreationDate,2022-04-22T20:24:59+08:00
; #@! TF.GenerationSoftware,Kicad,Pcbnew,(6.0.4)
; #@! TF.FileFunction,NonPlated,1,2,NPTH
FMAT,2
INCH
; #@! TA.AperFunction,NonPlated,NPTH,ComponentDrill
T1C0.0591
; #@! TA.AperFunction,NonPlated,NPTH,ComponentDrill
T2C0.0670
; #@! TA.AperFunction,NonPlated,NPTH,ComponentDrill
T3C0.1260
; #@! TA.AperFunction,NonPlated,NPTH,ComponentDrill
T4C0.1570
%
G90
G05
T1
X0.9006Y-4.8425
X0.9006Y-4.8425
X1.1762Y-4.8425
X1.1762Y-4.8425
T2
X1.0933Y-6.1063
X1.4933Y-6.1063
X1.8433Y-3.7382
X1.8433Y-4.4882
X1.8433Y-5.2382
X1.8433Y-5.9882
X2.2433Y-3.7382
X2.2433Y-4.4882
X2.2433Y-5.2382
X2.2433Y-5.9882
X2.5933Y-3.502
X2.5933Y-4.252
X2.5933Y-5.002
X2.5933Y-5.8701
X2.9933Y-3.502
X2.9933Y-4.252
X2.9933Y-5.002
X2.9933Y-5.8701
X3.3433Y-3.187
X3.3433Y-3.937
X3.3433Y-4.687
X3.7433Y-3.187
X3.7433Y-3.937
X3.7433Y-4.687
X4.0933Y-3.4232
X4.0933Y-4.1732
X4.0933Y-4.9232
X4.4933Y-3.4232
X4.4933Y-4.1732
X4.4933Y-4.9232
X4.8433Y-3.937
X4.8433Y-4.687
X4.8433Y-5.437
X5.2433Y-3.937
X5.2433Y-4.687
X5.2433Y-5.437
T3
X1.063Y-5.2362
X1.378Y-4.4488
X1.9055Y-3.2057
X3.0472Y-6.3967
X4.3219Y-5.6722
X4.8189Y-3.122
T4
X1.2933Y-6.1063
X2.0433Y-3.7382
X2.0433Y-4.4882
X2.0433Y-5.2382
X2.0433Y-5.9882
X2.7933Y-3.502
X2.7933Y-4.252
X2.7933Y-5.002
X2.7933Y-5.8701
X3.5433Y-3.187
X3.5433Y-3.937
X3.5433Y-4.687
X4.2933Y-3.4232
X4.2933Y-4.1732
X4.2933Y-4.9232
X5.0433Y-3.937
X5.0433Y-4.687
X5.0433Y-5.437
T0
M30
