M48
; DRILL file {KiCad (6.0.4)} date Fri Apr 22 20:24:59 2022
; FORMAT={-:-/ absolute / inch / decimal}
; #@! TF.CreationDate,2022-04-22T20:24:59+08:00
; #@! TF.GenerationSoftware,Kicad,Pcbnew,(6.0.4)
; #@! TF.FileFunction,Plated,1,2,PTH
FMAT,2
INCH
; #@! TA.AperFunction,Plated,PTH,ViaDrill
T1C0.0157
; #@! TA.AperFunction,Plated,PTH,ComponentDrill
T2C0.0300
; #@! TA.AperFunction,Plated,PTH,ComponentDrill
T3C0.0590
%
G90
G05
T1
X0.9618Y-4.8728
X1.0795Y-4.8264
X1.1053Y-4.3563
X1.237Y-4.8933
X1.2803Y-4.8413
X1.6461Y-4.8807
X1.7917Y-4.8591
T2
X0.9508Y-3.613
X0.9508Y-3.713
X0.9508Y-3.813
X0.9508Y-3.913
X0.9508Y-4.013
X0.9508Y-4.113
X0.9508Y-4.213
X1.5508Y-3.613
X1.5508Y-3.713
X1.5508Y-3.813
X1.5508Y-3.913
X1.5508Y-4.013
X1.5508Y-4.113
X1.5508Y-4.213
T3
X1.1433Y-6.2063
X1.1933Y-6.3063
X1.3933Y-6.3063
X1.4433Y-6.2063
X1.8933Y-3.8382
X1.8933Y-4.5882
X1.8933Y-5.3382
X1.8933Y-6.0882
X1.9433Y-3.9382
X1.9433Y-4.6882
X1.9433Y-5.4382
X1.9433Y-6.1882
X2.1433Y-3.9382
X2.1433Y-4.6882
X2.1433Y-5.4382
X2.1433Y-6.1882
X2.1933Y-3.8382
X2.1933Y-4.5882
X2.1933Y-5.3382
X2.1933Y-6.0882
X2.6433Y-3.602
X2.6433Y-4.352
X2.6433Y-5.102
X2.6433Y-5.9701
X2.6933Y-3.702
X2.6933Y-4.452
X2.6933Y-5.202
X2.6933Y-6.0701
X2.8933Y-3.702
X2.8933Y-4.452
X2.8933Y-5.202
X2.8933Y-6.0701
X2.9433Y-3.602
X2.9433Y-4.352
X2.9433Y-5.102
X2.9433Y-5.9701
X3.3933Y-3.287
X3.3933Y-4.037
X3.3933Y-4.787
X3.4433Y-3.387
X3.4433Y-4.137
X3.4433Y-4.887
X3.6433Y-3.387
X3.6433Y-4.137
X3.6433Y-4.887
X3.6933Y-3.287
X3.6933Y-4.037
X3.6933Y-4.787
X4.1433Y-3.5232
X4.1433Y-4.2732
X4.1433Y-5.0232
X4.1933Y-3.6232
X4.1933Y-4.3732
X4.1933Y-5.1232
X4.3933Y-3.6232
X4.3933Y-4.3732
X4.3933Y-5.1232
X4.4433Y-3.5232
X4.4433Y-4.2732
X4.4433Y-5.0232
X4.8933Y-4.037
X4.8933Y-4.787
X4.8933Y-5.537
X4.9433Y-4.137
X4.9433Y-4.887
X4.9433Y-5.637
X5.1433Y-4.137
X5.1433Y-4.887
X5.1433Y-5.637
X5.1933Y-4.037
X5.1933Y-4.787
X5.1933Y-5.537
T0
M30
