%TF.GenerationSoftware,KiCad,Pcbnew,(6.0.4)*%
%TF.CreationDate,2022-04-22T20:25:04+08:00*%
%TF.ProjectId,Slice36,536c6963-6533-4362-9e6b-696361645f70,rev?*%
%TF.SameCoordinates,Original*%
%TF.FileFunction,Copper,L1,Top*%
%TF.FilePolarity,Positive*%
%FSLAX46Y46*%
G04 Gerber Fmt 4.6, Leading zero omitted, Abs format (unit mm)*
G04 Created by KiCad (PCBNEW (6.0.4)) date 2022-04-22 20:25:04*
%MOMM*%
%LPD*%
G01*
G04 APERTURE LIST*
G04 Aperture macros list*
%AMRoundRect*
0 Rectangle with rounded corners*
0 $1 Rounding radius*
0 $2 $3 $4 $5 $6 $7 $8 $9 X,Y pos of 4 corners*
0 Add a 4 corners polygon primitive as box body*
4,1,4,$2,$3,$4,$5,$6,$7,$8,$9,$2,$3,0*
0 Add four circle primitives for the rounded corners*
1,1,$1+$1,$2,$3*
1,1,$1+$1,$4,$5*
1,1,$1+$1,$6,$7*
1,1,$1+$1,$8,$9*
0 Add four rect primitives between the rounded corners*
20,1,$1+$1,$2,$3,$4,$5,0*
20,1,$1+$1,$4,$5,$6,$7,0*
20,1,$1+$1,$6,$7,$8,$9,0*
20,1,$1+$1,$8,$9,$2,$3,0*%
G04 Aperture macros list end*
%TA.AperFunction,ComponentPad*%
%ADD10C,2.286000*%
%TD*%
%TA.AperFunction,SMDPad,CuDef*%
%ADD11R,1.000000X1.000000*%
%TD*%
%TA.AperFunction,SMDPad,CuDef*%
%ADD12RoundRect,0.250000X-0.450000X0.350000X-0.450000X-0.350000X0.450000X-0.350000X0.450000X0.350000X0*%
%TD*%
%TA.AperFunction,SMDPad,CuDef*%
%ADD13R,1.200000X2.500000*%
%TD*%
%TA.AperFunction,SMDPad,CuDef*%
%ADD14RoundRect,0.250000X0.350000X0.450000X-0.350000X0.450000X-0.350000X-0.450000X0.350000X-0.450000X0*%
%TD*%
%TA.AperFunction,ComponentPad*%
%ADD15R,1.524000X1.524000*%
%TD*%
%TA.AperFunction,ComponentPad*%
%ADD16C,1.524000*%
%TD*%
%TA.AperFunction,ViaPad*%
%ADD17C,0.800000*%
%TD*%
%TA.AperFunction,Conductor*%
%ADD18C,0.250000*%
%TD*%
G04 APERTURE END LIST*
D10*
%TO.P,Sw1,1,NE*%
%TO.N,Net-(D1-Pad2)*%
X36660000Y-157640000D03*
X35390000Y-160180000D03*
%TO.P,Sw1,2,NW*%
%TO.N,Net-(Sw1-Pad2)*%
X29040000Y-157640000D03*
X30310000Y-160180000D03*
%TD*%
%TO.P,Sw10,1,NE*%
%TO.N,Net-(D10-Pad2)*%
X93810000Y-83490000D03*
X92540000Y-86030000D03*
%TO.P,Sw10,2,NW*%
%TO.N,Net-(Sw10-Pad2)*%
X87460000Y-86030000D03*
X86190000Y-83490000D03*
%TD*%
D11*
%TO.P,D10,1,K*%
%TO.N,Net-(D1-Pad1)*%
X98400000Y-86050000D03*
%TO.P,D10,2,A*%
%TO.N,Net-(D10-Pad2)*%
X98400000Y-83550000D03*
%TD*%
%TO.P,D17,1,K*%
%TO.N,Net-(D11-Pad1)*%
X136500000Y-124050000D03*
%TO.P,D17,2,A*%
%TO.N,Net-(D17-Pad2)*%
X136500000Y-121550000D03*
%TD*%
D10*
%TO.P,Sw2,1,NE*%
%TO.N,Net-(D2-Pad2)*%
X54440000Y-157180000D03*
X55710000Y-154640000D03*
%TO.P,Sw2,2,NW*%
%TO.N,Net-(Sw1-Pad2)*%
X48090000Y-154640000D03*
X49360000Y-157180000D03*
%TD*%
D11*
%TO.P,D1,1,K*%
%TO.N,Net-(D1-Pad1)*%
X41400000Y-155100000D03*
%TO.P,D1,2,A*%
%TO.N,Net-(D1-Pad2)*%
X41400000Y-157600000D03*
%TD*%
%TO.P,D5,1,K*%
%TO.N,Net-(D11-Pad1)*%
X60300000Y-119050000D03*
%TO.P,D5,2,A*%
%TO.N,Net-(D5-Pad2)*%
X60300000Y-116550000D03*
%TD*%
D12*
%TO.P,R1,1*%
%TO.N,Net-(R1-Pad1)*%
X41870000Y-143200000D03*
%TO.P,R1,2*%
%TO.N,Net-(D12-Pad1)*%
X41870000Y-145200000D03*
%TD*%
D11*
%TO.P,D2,1,K*%
%TO.N,Net-(D11-Pad1)*%
X59900000Y-152150000D03*
%TO.P,D2,2,A*%
%TO.N,Net-(D2-Pad2)*%
X59900000Y-154650000D03*
%TD*%
D10*
%TO.P,Sw8,1,NE*%
%TO.N,Net-(D8-Pad2)*%
X74760000Y-110540000D03*
X73490000Y-113080000D03*
%TO.P,Sw8,2,NW*%
%TO.N,Net-(Sw7-Pad2)*%
X68410000Y-113080000D03*
X67140000Y-110540000D03*
%TD*%
D11*
%TO.P,D12,1,K*%
%TO.N,Net-(D12-Pad1)*%
X98400000Y-124100000D03*
%TO.P,D12,2,A*%
%TO.N,Net-(D12-Pad2)*%
X98400000Y-121600000D03*
%TD*%
D10*
%TO.P,Sw7,1,NE*%
%TO.N,Net-(D7-Pad2)*%
X73490000Y-94030000D03*
X74760000Y-91490000D03*
%TO.P,Sw7,2,NW*%
%TO.N,Net-(Sw7-Pad2)*%
X67140000Y-91490000D03*
X68410000Y-94030000D03*
%TD*%
D11*
%TO.P,D14,1,K*%
%TO.N,Net-(D11-Pad1)*%
X117400000Y-111050000D03*
%TO.P,D14,2,A*%
%TO.N,Net-(D14-Pad2)*%
X117400000Y-108550000D03*
%TD*%
%TO.P,D8,1,K*%
%TO.N,Net-(D11-Pad1)*%
X79300000Y-113050000D03*
%TO.P,D8,2,A*%
%TO.N,Net-(D8-Pad2)*%
X79300000Y-110550000D03*
%TD*%
%TO.P,D13,1,K*%
%TO.N,Net-(D1-Pad1)*%
X117500000Y-87000000D03*
%TO.P,D13,2,A*%
%TO.N,Net-(D13-Pad2)*%
X117500000Y-89500000D03*
%TD*%
D10*
%TO.P,Sw15,1,NE*%
%TO.N,Net-(Sw15-Pad1)*%
X111590000Y-130130000D03*
X112860000Y-127590000D03*
%TO.P,Sw15,2,SW*%
%TO.N,Net-(Sw15-Pad2)*%
X105240000Y-127590000D03*
X106510000Y-130130000D03*
%TD*%
D13*
%TO.P,J2,R1*%
%TO.N,Net-(J1-PadR1)*%
X27475000Y-119750000D03*
%TO.P,J2,R2*%
%TO.N,Net-(J1-PadR2)*%
X24475000Y-119750000D03*
%TO.P,J2,S*%
%TO.N,Net-(J1-PadS)*%
X32575000Y-126250000D03*
%TO.P,J2,T*%
%TO.N,Net-(J1-PadT)*%
X31475000Y-119750000D03*
%TD*%
D10*
%TO.P,Sw5,1,NE*%
%TO.N,Net-(D5-Pad2)*%
X54440000Y-119080000D03*
X55710000Y-116540000D03*
%TO.P,Sw5,2,SW*%
%TO.N,Net-(Sw4-Pad2)*%
X49360000Y-119080000D03*
X48090000Y-116540000D03*
%TD*%
%TO.P,Sw16,1,NE*%
%TO.N,Net-(D16-Pad2)*%
X131910000Y-102540000D03*
X130640000Y-105080000D03*
%TO.P,Sw16,2,SW*%
%TO.N,Net-(Sw17-Pad2)*%
X124290000Y-102540000D03*
X125560000Y-105080000D03*
%TD*%
D14*
%TO.P,R5,1*%
%TO.N,Net-(J1-PadT)*%
X29200000Y-113650000D03*
%TO.P,R5,2*%
%TO.N,Net-(J1-PadR1)*%
X27200000Y-113650000D03*
%TD*%
D10*
%TO.P,Sw12,1,NE*%
%TO.N,Net-(D12-Pad2)*%
X92540000Y-124130000D03*
X93810000Y-121590000D03*
%TO.P,Sw12,2,NW*%
%TO.N,Net-(Sw10-Pad2)*%
X86190000Y-121590000D03*
X87460000Y-124130000D03*
%TD*%
D11*
%TO.P,D6,1,K*%
%TO.N,Net-(D12-Pad1)*%
X61000000Y-138250000D03*
%TO.P,D6,2,A*%
%TO.N,Net-(D6-Pad2)*%
X61000000Y-135750000D03*
%TD*%
%TO.P,D11,1,K*%
%TO.N,Net-(D11-Pad1)*%
X98400000Y-105050000D03*
%TO.P,D11,2,A*%
%TO.N,Net-(D11-Pad2)*%
X98400000Y-102550000D03*
%TD*%
D12*
%TO.P,R3,1*%
%TO.N,Net-(R3-Pad1)*%
X41870000Y-111560000D03*
%TO.P,R3,2*%
%TO.N,Net-(D1-Pad1)*%
X41870000Y-113560000D03*
%TD*%
D14*
%TO.P,R4,1*%
%TO.N,Net-(J1-PadT)*%
X29190000Y-115570000D03*
%TO.P,R4,2*%
%TO.N,Net-(J1-PadR1)*%
X27190000Y-115570000D03*
%TD*%
D11*
%TO.P,D7,1,K*%
%TO.N,Net-(D1-Pad1)*%
X79400000Y-94000000D03*
%TO.P,D7,2,A*%
%TO.N,Net-(D7-Pad2)*%
X79400000Y-91500000D03*
%TD*%
D10*
%TO.P,Sw11,1,NE*%
%TO.N,Net-(D11-Pad2)*%
X92540000Y-105080000D03*
X93810000Y-102540000D03*
%TO.P,Sw11,2,NW*%
%TO.N,Net-(Sw10-Pad2)*%
X87460000Y-105080000D03*
X86190000Y-102540000D03*
%TD*%
D11*
%TO.P,D3,1,K*%
%TO.N,Net-(D12-Pad1)*%
X79400000Y-149100000D03*
%TO.P,D3,2,A*%
%TO.N,Net-(D3-Pad2)*%
X79400000Y-151600000D03*
%TD*%
D10*
%TO.P,Sw17,1,NE*%
%TO.N,Net-(D17-Pad2)*%
X131910000Y-121590000D03*
X130640000Y-124130000D03*
%TO.P,Sw17,2,NW*%
%TO.N,Net-(Sw17-Pad2)*%
X125560000Y-124130000D03*
X124290000Y-121590000D03*
%TD*%
D15*
%TO.P,U1,1,PA02_A0_D0*%
%TO.N,Net-(Sw1-Pad2)*%
X24150000Y-91770000D03*
D16*
%TO.P,U1,2,PA4_A1_D1*%
%TO.N,Net-(Sw4-Pad2)*%
X24150000Y-94310000D03*
%TO.P,U1,3,PA10_A2_D2*%
%TO.N,Net-(Sw7-Pad2)*%
X24150000Y-96850000D03*
%TO.P,U1,4,PA11_A3_D3*%
%TO.N,Net-(Sw10-Pad2)*%
X24150000Y-99390000D03*
%TO.P,U1,5,PA8_A4_D4_SDA*%
%TO.N,Net-(J1-PadR2)*%
X24150000Y-101930000D03*
%TO.P,U1,6,PA9_A5_D5_SCL*%
%TO.N,Net-(J1-PadR1)*%
X24150000Y-104470000D03*
%TO.P,U1,7,PB08_A6_D6_TX*%
%TO.N,Net-(Sw15-Pad2)*%
X24150000Y-107010000D03*
%TO.P,U1,8,PB09_A7_D7_RX*%
%TO.N,Net-(Sw17-Pad2)*%
X39390000Y-107010000D03*
%TO.P,U1,9,PA7_A8_D8_SCK*%
%TO.N,Net-(R1-Pad1)*%
X39390000Y-104470000D03*
%TO.P,U1,10,PA5_A9_D9_MISO*%
%TO.N,Net-(R2-Pad1)*%
X39390000Y-101930000D03*
%TO.P,U1,11,PA6_A10_D10_MOSI*%
%TO.N,Net-(R3-Pad1)*%
X39390000Y-99390000D03*
%TO.P,U1,12,3V3*%
%TO.N,Net-(J1-PadT)*%
X39390000Y-96850000D03*
%TO.P,U1,13,GND*%
%TO.N,Net-(J1-PadS)*%
X39390000Y-94310000D03*
%TO.P,U1,14,5V*%
%TO.N,unconnected-(U1-Pad14)*%
X39390000Y-91770000D03*
%TD*%
D11*
%TO.P,D16,1,K*%
%TO.N,Net-(D1-Pad1)*%
X136600000Y-99900000D03*
%TO.P,D16,2,A*%
%TO.N,Net-(D16-Pad2)*%
X136600000Y-102400000D03*
%TD*%
%TO.P,D4,1,K*%
%TO.N,Net-(D1-Pad1)*%
X60400000Y-100050000D03*
%TO.P,D4,2,A*%
%TO.N,Net-(D4-Pad2)*%
X60400000Y-97550000D03*
%TD*%
D10*
%TO.P,Sw3,1,NE*%
%TO.N,Net-(D3-Pad2)*%
X73490000Y-154180000D03*
X74760000Y-151640000D03*
%TO.P,Sw3,2,NW*%
%TO.N,Net-(Sw1-Pad2)*%
X67140000Y-151640000D03*
X68410000Y-154180000D03*
%TD*%
%TO.P,Sw13,1,NE*%
%TO.N,Net-(D13-Pad2)*%
X112860000Y-89490000D03*
X111590000Y-92030000D03*
%TO.P,Sw13,2,SW*%
%TO.N,Net-(Sw15-Pad2)*%
X106510000Y-92030000D03*
X105240000Y-89490000D03*
%TD*%
D11*
%TO.P,D18,1,K*%
%TO.N,Net-(D12-Pad1)*%
X136500000Y-143150000D03*
%TO.P,D18,2,A*%
%TO.N,Net-(D18-Pad2)*%
X136500000Y-140650000D03*
%TD*%
D14*
%TO.P,R7,1*%
%TO.N,Net-(J1-PadT)*%
X24700000Y-113600000D03*
%TO.P,R7,2*%
%TO.N,Net-(J1-PadR2)*%
X22700000Y-113600000D03*
%TD*%
D10*
%TO.P,Sw9,1,NE*%
%TO.N,Net-(D9-Pad2)*%
X74760000Y-129590000D03*
X73490000Y-132130000D03*
%TO.P,Sw9,2,NW*%
%TO.N,Net-(Sw7-Pad2)*%
X68410000Y-132130000D03*
X67140000Y-129590000D03*
%TD*%
D14*
%TO.P,R6,1*%
%TO.N,Net-(J1-PadT)*%
X24700000Y-115550000D03*
%TO.P,R6,2*%
%TO.N,Net-(J1-PadR2)*%
X22700000Y-115550000D03*
%TD*%
D11*
%TO.P,D9,1,K*%
%TO.N,Net-(D12-Pad1)*%
X79400000Y-132150000D03*
%TO.P,D9,2,A*%
%TO.N,Net-(D9-Pad2)*%
X79400000Y-129650000D03*
%TD*%
D10*
%TO.P,Sw4,1,NE*%
%TO.N,Net-(D4-Pad2)*%
X54440000Y-100030000D03*
X55710000Y-97490000D03*
%TO.P,Sw4,2,SW*%
%TO.N,Net-(Sw4-Pad2)*%
X49360000Y-100030000D03*
X48090000Y-97490000D03*
%TD*%
D11*
%TO.P,D15,1,K*%
%TO.N,Net-(D12-Pad1)*%
X117600000Y-130050000D03*
%TO.P,D15,2,A*%
%TO.N,Net-(Sw15-Pad1)*%
X117600000Y-127550000D03*
%TD*%
D10*
%TO.P,Sw6,1,NE*%
%TO.N,Net-(D6-Pad2)*%
X55710000Y-135590000D03*
X54440000Y-138130000D03*
%TO.P,Sw6,2,NW*%
%TO.N,Net-(Sw4-Pad2)*%
X49360000Y-138130000D03*
X48090000Y-135590000D03*
%TD*%
%TO.P,Sw18,1,NE*%
%TO.N,Net-(D18-Pad2)*%
X130640000Y-143180000D03*
X131910000Y-140640000D03*
%TO.P,Sw18,2,NW*%
%TO.N,Net-(Sw17-Pad2)*%
X124290000Y-140640000D03*
X125560000Y-143180000D03*
%TD*%
%TO.P,Sw14,1,NE*%
%TO.N,Net-(D14-Pad2)*%
X111590000Y-111080000D03*
X112860000Y-108540000D03*
%TO.P,Sw14,2,SW*%
%TO.N,Net-(Sw15-Pad2)*%
X106510000Y-111080000D03*
X105240000Y-108540000D03*
%TD*%
D12*
%TO.P,R2,1*%
%TO.N,Net-(R2-Pad1)*%
X41450000Y-120025000D03*
%TO.P,R2,2*%
%TO.N,Net-(D11-Pad1)*%
X41450000Y-122025000D03*
%TD*%
D17*
%TO.N,Net-(D11-Pad1)*%
X41810000Y-123970000D03*
X45510000Y-123420000D03*
%TO.N,Net-(J1-PadR1)*%
X27420000Y-122590000D03*
%TO.N,Net-(J1-PadR2)*%
X24430000Y-123770000D03*
%TO.N,Net-(J1-PadS)*%
X28075000Y-110650000D03*
X32520000Y-122970000D03*
%TO.N,Net-(J1-PadT)*%
X31420000Y-124290000D03*
%TD*%
D18*
%TO.N,Net-(D1-Pad1)*%
X43500000Y-115190000D02*
X43500000Y-115200000D01*
X83300000Y-90100000D02*
X96600000Y-90100000D01*
X43500000Y-115200000D02*
X43500000Y-104200000D01*
X100500000Y-79800000D02*
X101300000Y-79000000D01*
X117500000Y-81100000D02*
X117500000Y-87000000D01*
X41870000Y-113560000D02*
X43500000Y-115190000D01*
X136600000Y-93800000D02*
X133800000Y-91000000D01*
X60400000Y-101200000D02*
X60400000Y-100050000D01*
X121700000Y-91000000D02*
X117700000Y-87000000D01*
X133800000Y-91000000D02*
X121700000Y-91000000D01*
X98950000Y-86050000D02*
X100500000Y-84500000D01*
X101300000Y-79000000D02*
X115400000Y-79000000D01*
X43500000Y-153000000D02*
X43500000Y-115200000D01*
X100500000Y-84500000D02*
X100500000Y-79800000D01*
X58000000Y-103600000D02*
X60400000Y-101200000D01*
X78200000Y-97300000D02*
X79400000Y-96100000D01*
X43500000Y-104200000D02*
X44100000Y-103600000D01*
X115400000Y-79000000D02*
X117500000Y-81100000D01*
X136600000Y-99900000D02*
X136600000Y-93800000D01*
X61950000Y-100050000D02*
X64700000Y-97300000D01*
X98400000Y-88300000D02*
X98400000Y-86050000D01*
X117700000Y-87000000D02*
X117500000Y-87000000D01*
X79400000Y-94000000D02*
X83300000Y-90100000D01*
X79400000Y-96100000D02*
X79400000Y-94000000D01*
X96600000Y-90100000D02*
X98400000Y-88300000D01*
X98400000Y-86050000D02*
X98950000Y-86050000D01*
X41400000Y-155100000D02*
X43500000Y-153000000D01*
X44100000Y-103600000D02*
X58000000Y-103600000D01*
X64700000Y-97300000D02*
X78200000Y-97300000D01*
X60400000Y-100050000D02*
X61950000Y-100050000D01*
%TO.N,Net-(D1-Pad2)*%
X36660000Y-158910000D02*
X36660000Y-157640000D01*
X40990000Y-157640000D02*
X41000000Y-157650000D01*
X35390000Y-160180000D02*
X36660000Y-158910000D01*
X36660000Y-157640000D02*
X40990000Y-157640000D01*
%TO.N,Net-(D11-Pad1)*%
X59900000Y-145200000D02*
X57100000Y-142400000D01*
X44400000Y-141100000D02*
X44400000Y-124500000D01*
X62725000Y-119050000D02*
X66325000Y-115450000D01*
X76900000Y-115450000D02*
X79300000Y-113050000D01*
X45700000Y-142400000D02*
X44400000Y-141100000D01*
X59900000Y-152150000D02*
X59900000Y-145200000D01*
X114900000Y-114300000D02*
X103000000Y-114300000D01*
X57100000Y-142400000D02*
X45700000Y-142400000D01*
X134200000Y-127400000D02*
X136500000Y-125100000D01*
X58200000Y-123500000D02*
X60300000Y-121400000D01*
X60300000Y-121400000D02*
X60300000Y-119050000D01*
X117400000Y-111050000D02*
X117400000Y-123800000D01*
X117400000Y-111050000D02*
X117400000Y-111800000D01*
X60300000Y-119050000D02*
X62725000Y-119050000D01*
X41450000Y-122025000D02*
X41450000Y-123610000D01*
X58100000Y-123400000D02*
X58200000Y-123500000D01*
X45500000Y-123400000D02*
X58100000Y-123400000D01*
X136500000Y-125100000D02*
X136500000Y-124050000D01*
X83900000Y-109700000D02*
X80550000Y-113050000D01*
X98400000Y-109700000D02*
X83900000Y-109700000D01*
X66325000Y-115450000D02*
X76900000Y-115450000D01*
X79300000Y-113050000D02*
X80550000Y-113050000D01*
X121000000Y-127400000D02*
X134200000Y-127400000D01*
X41450000Y-123610000D02*
X41810000Y-123970000D01*
X44400000Y-124500000D02*
X45500000Y-123400000D01*
X98400000Y-109700000D02*
X98400000Y-105050000D01*
X117400000Y-123800000D02*
X121000000Y-127400000D01*
X103000000Y-114300000D02*
X98400000Y-109700000D01*
X117400000Y-111800000D02*
X114900000Y-114300000D01*
%TO.N,Net-(D2-Pad2)*%
X55710000Y-155910000D02*
X55710000Y-154640000D01*
X54440000Y-157180000D02*
X55710000Y-155910000D01*
X55710000Y-154640000D02*
X59890000Y-154640000D01*
X59890000Y-154640000D02*
X59900000Y-154650000D01*
%TO.N,Net-(D12-Pad1)*%
X27820000Y-145200000D02*
X23840000Y-149180000D01*
X23840000Y-149180000D02*
X23840000Y-159500000D01*
X79400000Y-132150000D02*
X79400000Y-149100000D01*
X117600000Y-131200000D02*
X117600000Y-130050000D01*
X137600000Y-131900000D02*
X135750000Y-130050000D01*
X79400000Y-132150000D02*
X79450000Y-132150000D01*
X96900000Y-127800000D02*
X98400000Y-126300000D01*
X100700000Y-132400000D02*
X101800000Y-133500000D01*
X64300000Y-159780000D02*
X67700000Y-156380000D01*
X41870000Y-145200000D02*
X27820000Y-145200000D01*
X81120000Y-150820000D02*
X79400000Y-149100000D01*
X27820000Y-163480000D02*
X44940000Y-163480000D01*
X23840000Y-159500000D02*
X27820000Y-163480000D01*
X137600000Y-142050000D02*
X137600000Y-131900000D01*
X135750000Y-130050000D02*
X117600000Y-130050000D01*
X79450000Y-132150000D02*
X83800000Y-127800000D01*
X48640000Y-159780000D02*
X64300000Y-159780000D01*
X67700000Y-156380000D02*
X79370000Y-156380000D01*
X81120000Y-154630000D02*
X81120000Y-150820000D01*
X79370000Y-156380000D02*
X81120000Y-154630000D01*
X83800000Y-127800000D02*
X96900000Y-127800000D01*
X61000000Y-138250000D02*
X73300000Y-138250000D01*
X98400000Y-126300000D02*
X100700000Y-128600000D01*
X100700000Y-128600000D02*
X100700000Y-132400000D01*
X98400000Y-124100000D02*
X98400000Y-126300000D01*
X101800000Y-133500000D02*
X115300000Y-133500000D01*
X73300000Y-138250000D02*
X79400000Y-132150000D01*
X136500000Y-143150000D02*
X137600000Y-142050000D01*
X44940000Y-163480000D02*
X48640000Y-159780000D01*
X115300000Y-133500000D02*
X117600000Y-131200000D01*
%TO.N,Net-(D3-Pad2)*%
X74760000Y-152910000D02*
X74760000Y-151640000D01*
X79500000Y-151750000D02*
X74870000Y-151750000D01*
X74870000Y-151750000D02*
X74760000Y-151640000D01*
X73490000Y-154180000D02*
X74760000Y-152910000D01*
%TO.N,Net-(D4-Pad2)*%
X55770000Y-97550000D02*
X55710000Y-97490000D01*
X60400000Y-97550000D02*
X55770000Y-97550000D01*
X54440000Y-100030000D02*
X55710000Y-98760000D01*
X55710000Y-98760000D02*
X55710000Y-97490000D01*
%TO.N,Net-(D5-Pad2)*%
X54440000Y-119080000D02*
X55710000Y-117810000D01*
X60300000Y-116550000D02*
X55720000Y-116550000D01*
X55720000Y-116550000D02*
X55710000Y-116540000D01*
X55710000Y-117810000D02*
X55710000Y-116540000D01*
%TO.N,Net-(D6-Pad2)*%
X55710000Y-136860000D02*
X55710000Y-135590000D01*
X60840000Y-135590000D02*
X61000000Y-135750000D01*
X55710000Y-135590000D02*
X60840000Y-135590000D01*
X54440000Y-138130000D02*
X55710000Y-136860000D01*
%TO.N,Net-(D7-Pad2)*%
X79400000Y-91500000D02*
X74770000Y-91500000D01*
X74760000Y-92760000D02*
X74760000Y-91490000D01*
X73490000Y-94030000D02*
X74760000Y-92760000D01*
X74770000Y-91500000D02*
X74760000Y-91490000D01*
%TO.N,Net-(D8-Pad2)*%
X73490000Y-113080000D02*
X74760000Y-111810000D01*
X74770000Y-110550000D02*
X74760000Y-110540000D01*
X79300000Y-110550000D02*
X74770000Y-110550000D01*
X74760000Y-111810000D02*
X74760000Y-110540000D01*
%TO.N,Net-(D9-Pad2)*%
X74760000Y-130860000D02*
X74760000Y-129590000D01*
X74820000Y-129650000D02*
X74760000Y-129590000D01*
X73490000Y-132130000D02*
X74760000Y-130860000D01*
X79400000Y-129650000D02*
X74820000Y-129650000D01*
%TO.N,Net-(D10-Pad2)*%
X93810000Y-84760000D02*
X93810000Y-83490000D01*
X93870000Y-83550000D02*
X93810000Y-83490000D01*
X98400000Y-83550000D02*
X93870000Y-83550000D01*
X92540000Y-86030000D02*
X93810000Y-84760000D01*
%TO.N,Net-(D11-Pad2)*%
X98390000Y-102540000D02*
X98400000Y-102550000D01*
X93810000Y-102540000D02*
X98390000Y-102540000D01*
X93810000Y-103810000D02*
X93810000Y-102540000D01*
X92540000Y-105080000D02*
X93810000Y-103810000D01*
%TO.N,Net-(D12-Pad2)*%
X92540000Y-124130000D02*
X93810000Y-122860000D01*
X93810000Y-122860000D02*
X93810000Y-121590000D01*
X93810000Y-121590000D02*
X98390000Y-121590000D01*
X98390000Y-121590000D02*
X98400000Y-121600000D01*
%TO.N,Net-(D13-Pad2)*%
X111590000Y-92030000D02*
X112860000Y-90760000D01*
X117440000Y-89490000D02*
X117500000Y-89550000D01*
X112860000Y-90760000D02*
X112860000Y-89490000D01*
X112860000Y-89490000D02*
X117440000Y-89490000D01*
%TO.N,Net-(D14-Pad2)*%
X112860000Y-108540000D02*
X117390000Y-108540000D01*
X117390000Y-108540000D02*
X117400000Y-108550000D01*
X111590000Y-111080000D02*
X112860000Y-109810000D01*
X112860000Y-109810000D02*
X112860000Y-108540000D01*
%TO.N,Net-(D16-Pad2)*%
X136460000Y-102540000D02*
X136600000Y-102400000D01*
X131910000Y-103810000D02*
X131910000Y-102540000D01*
X130640000Y-105080000D02*
X131910000Y-103810000D01*
X131910000Y-102540000D02*
X136460000Y-102540000D01*
X136700000Y-102500000D02*
X136700000Y-102550000D01*
X136600000Y-102400000D02*
X136700000Y-102500000D01*
%TO.N,Net-(D17-Pad2)*%
X130640000Y-124130000D02*
X131910000Y-122860000D01*
X136460000Y-121590000D02*
X136500000Y-121550000D01*
X131910000Y-122860000D02*
X131910000Y-121590000D01*
X131910000Y-121590000D02*
X136460000Y-121590000D01*
%TO.N,Net-(D18-Pad2)*%
X136490000Y-140640000D02*
X136500000Y-140650000D01*
X131910000Y-140640000D02*
X136490000Y-140640000D01*
X131910000Y-141910000D02*
X131910000Y-140640000D01*
X130640000Y-143180000D02*
X131910000Y-141910000D01*
%TO.N,Net-(J1-PadR1)*%
X24150000Y-104470000D02*
X27200000Y-107520000D01*
X27200000Y-113650000D02*
X27200000Y-107520000D01*
X27200000Y-115600000D02*
X27200000Y-115500000D01*
X27420000Y-122590000D02*
X27420000Y-120500000D01*
X27150000Y-115450000D02*
X27150000Y-113700000D01*
X27420000Y-120500000D02*
X27430000Y-120490000D01*
X27200000Y-115500000D02*
X27150000Y-115450000D01*
X27190000Y-115570000D02*
X27475000Y-115855000D01*
X27150000Y-113700000D02*
X27200000Y-113650000D01*
X27475000Y-115855000D02*
X27475000Y-119750000D01*
%TO.N,Net-(J1-PadR2)*%
X22700000Y-115550000D02*
X24475000Y-117325000D01*
X24430000Y-120490000D02*
X24430000Y-123770000D01*
X22700000Y-103380000D02*
X22700000Y-113600000D01*
X22700000Y-115550000D02*
X22700000Y-113600000D01*
X24475000Y-117325000D02*
X24475000Y-119750000D01*
X22700000Y-103380000D02*
X24150000Y-101930000D01*
%TO.N,Net-(J1-PadS)*%
X32530000Y-126990000D02*
X32530000Y-122980000D01*
X28075000Y-105625000D02*
X28075000Y-110650000D01*
X28075000Y-105625000D02*
X39390000Y-94310000D01*
X32530000Y-122980000D02*
X32520000Y-122970000D01*
%TO.N,Net-(J1-PadT)*%
X24700000Y-113600000D02*
X24700000Y-115550000D01*
X37750000Y-98490000D02*
X39390000Y-96850000D01*
X29200000Y-113650000D02*
X37750000Y-105100000D01*
X29190000Y-115570000D02*
X29190000Y-115590000D01*
X29190000Y-115570000D02*
X31475000Y-117855000D01*
X24700000Y-115550000D02*
X25950000Y-116800000D01*
X25950000Y-122325000D02*
X27950000Y-124325000D01*
X29190000Y-115590000D02*
X29200000Y-115600000D01*
X29200000Y-115600000D02*
X29200000Y-113650000D01*
X31475000Y-117855000D02*
X31475000Y-119750000D01*
X27950000Y-124325000D02*
X31385000Y-124325000D01*
X25950000Y-116800000D02*
X25950000Y-122325000D01*
X31385000Y-124325000D02*
X31420000Y-124290000D01*
X31475000Y-124235000D02*
X31475000Y-119750000D01*
X31420000Y-124290000D02*
X31475000Y-124235000D01*
X37750000Y-105100000D02*
X37750000Y-98490000D01*
%TO.N,Net-(R1-Pad1)*%
X41870000Y-126160000D02*
X39590000Y-123880000D01*
X39590000Y-110030000D02*
X41400000Y-108220000D01*
X41400000Y-108220000D02*
X41400000Y-104930000D01*
X40940000Y-104470000D02*
X39390000Y-104470000D01*
X39590000Y-123880000D02*
X39590000Y-110030000D01*
X41400000Y-104930000D02*
X40940000Y-104470000D01*
X41870000Y-143200000D02*
X41870000Y-126160000D01*
%TO.N,Net-(R2-Pad1)*%
X41740000Y-116390000D02*
X40280000Y-114930000D01*
X40280000Y-110560000D02*
X42180000Y-108660000D01*
X42180000Y-108660000D02*
X42180000Y-103430000D01*
X41450000Y-120025000D02*
X41740000Y-119735000D01*
X40280000Y-114930000D02*
X40280000Y-110560000D01*
X40680000Y-101930000D02*
X39390000Y-101930000D01*
X42180000Y-103430000D02*
X40680000Y-101930000D01*
X41740000Y-119735000D02*
X41740000Y-116390000D01*
%TO.N,Net-(R3-Pad1)*%
X39390000Y-99390000D02*
X42830000Y-102830000D01*
X42830000Y-110600000D02*
X41870000Y-111560000D01*
X42830000Y-102830000D02*
X42830000Y-110600000D01*
%TO.N,Net-(Sw1-Pad2)*%
X49360000Y-157180000D02*
X51180000Y-159000000D01*
X68410000Y-154180000D02*
X67140000Y-152910000D01*
X48090000Y-155910000D02*
X48090000Y-154640000D01*
X49360000Y-157180000D02*
X48090000Y-155910000D01*
X32130000Y-162000000D02*
X44540000Y-162000000D01*
X30310000Y-160180000D02*
X32130000Y-162000000D01*
X30310000Y-160180000D02*
X29040000Y-158910000D01*
X63590000Y-159000000D02*
X68410000Y-154180000D01*
X67140000Y-152910000D02*
X67140000Y-151640000D01*
X44540000Y-162000000D02*
X49360000Y-157180000D01*
X51180000Y-159000000D02*
X63590000Y-159000000D01*
X29040000Y-158910000D02*
X29040000Y-157640000D01*
%TO.N,Net-(Sw4-Pad2)*%
X37120000Y-90030000D02*
X40420000Y-90030000D01*
X24150000Y-94310000D02*
X25236511Y-93223489D01*
X48090000Y-116540000D02*
X49360000Y-117810000D01*
X49360000Y-100030000D02*
X48090000Y-98760000D01*
X49360000Y-117810000D02*
X49360000Y-119080000D01*
X48090000Y-136860000D02*
X48090000Y-135590000D01*
X48090000Y-98760000D02*
X48090000Y-97490000D01*
X25236511Y-93223489D02*
X33926511Y-93223489D01*
X44900000Y-95280000D02*
X47110000Y-97490000D01*
X40420000Y-90030000D02*
X44900000Y-94510000D01*
X49360000Y-138130000D02*
X48090000Y-136860000D01*
X33926511Y-93223489D02*
X37120000Y-90030000D01*
X44900000Y-94510000D02*
X44900000Y-95280000D01*
X47110000Y-97490000D02*
X48090000Y-97490000D01*
%TO.N,Net-(Sw7-Pad2)*%
X22510000Y-90970000D02*
X24350000Y-89130000D01*
X67140000Y-130860000D02*
X67140000Y-129590000D01*
X67140000Y-92760000D02*
X67140000Y-91490000D01*
X68410000Y-113080000D02*
X67140000Y-111810000D01*
X64150000Y-91490000D02*
X67140000Y-91490000D01*
X24350000Y-89130000D02*
X41860000Y-89130000D01*
X68410000Y-132130000D02*
X67140000Y-130860000D01*
X24150000Y-96850000D02*
X22510000Y-95210000D01*
X41860000Y-89130000D02*
X43800000Y-87190000D01*
X59850000Y-87190000D02*
X64150000Y-91490000D01*
X43800000Y-87190000D02*
X59850000Y-87190000D01*
X68410000Y-94030000D02*
X67140000Y-92760000D01*
X67140000Y-111810000D02*
X67140000Y-110540000D01*
X22510000Y-95210000D02*
X22510000Y-90970000D01*
%TO.N,Net-(Sw10-Pad2)*%
X86190000Y-122860000D02*
X86190000Y-121590000D01*
X87460000Y-84760000D02*
X87460000Y-86030000D01*
X87460000Y-124130000D02*
X86190000Y-122860000D01*
X86190000Y-102540000D02*
X87460000Y-103810000D01*
X87460000Y-103810000D02*
X87460000Y-105080000D01*
X86190000Y-83490000D02*
X87460000Y-84760000D01*
%TO.N,Net-(Sw15-Pad1)*%
X112900000Y-127550000D02*
X112860000Y-127590000D01*
X112860000Y-128860000D02*
X112860000Y-127590000D01*
X117600000Y-127550000D02*
X112900000Y-127550000D01*
X111590000Y-130130000D02*
X112860000Y-128860000D01*
%TO.N,Net-(Sw15-Pad2)*%
X106510000Y-130130000D02*
X105240000Y-128860000D01*
X105240000Y-128860000D02*
X105240000Y-127590000D01*
X106510000Y-111080000D02*
X105240000Y-109810000D01*
X105240000Y-89490000D02*
X106510000Y-90760000D01*
X105240000Y-109810000D02*
X105240000Y-108540000D01*
X106510000Y-90760000D02*
X106510000Y-92030000D01*
%TO.N,Net-(Sw17-Pad2)*%
X124290000Y-103810000D02*
X124290000Y-102540000D01*
X124290000Y-122860000D02*
X124290000Y-121590000D01*
X125560000Y-105080000D02*
X124290000Y-103810000D01*
X124290000Y-141910000D02*
X124290000Y-140640000D01*
X125560000Y-124130000D02*
X124290000Y-122860000D01*
X125560000Y-143180000D02*
X124290000Y-141910000D01*
%TD*%
M02*
