%TF.GenerationSoftware,KiCad,Pcbnew,(6.0.4)*%
%TF.CreationDate,2022-04-22T20:25:04+08:00*%
%TF.ProjectId,Slice36,536c6963-6533-4362-9e6b-696361645f70,rev?*%
%TF.SameCoordinates,Original*%
%TF.FileFunction,Copper,L2,Bot*%
%TF.FilePolarity,Positive*%
%FSLAX46Y46*%
G04 Gerber Fmt 4.6, Leading zero omitted, Abs format (unit mm)*
G04 Created by KiCad (PCBNEW (6.0.4)) date 2022-04-22 20:25:04*
%MOMM*%
%LPD*%
G01*
G04 APERTURE LIST*
%TA.AperFunction,ComponentPad*%
%ADD10C,2.286000*%
%TD*%
%TA.AperFunction,ComponentPad*%
%ADD11R,1.524000X1.524000*%
%TD*%
%TA.AperFunction,ComponentPad*%
%ADD12C,1.524000*%
%TD*%
%TA.AperFunction,SMDPad,CuDef*%
%ADD13R,1.200000X2.500000*%
%TD*%
%TA.AperFunction,ViaPad*%
%ADD14C,0.800000*%
%TD*%
%TA.AperFunction,Conductor*%
%ADD15C,0.250000*%
%TD*%
G04 APERTURE END LIST*
D10*
%TO.P,Sw1,1,NE*%
%TO.N,Net-(D1-Pad2)*%
X36660000Y-157640000D03*
X35390000Y-160180000D03*
%TO.P,Sw1,2,NW*%
%TO.N,Net-(Sw1-Pad2)*%
X29040000Y-157640000D03*
X30310000Y-160180000D03*
%TD*%
%TO.P,Sw10,1,NE*%
%TO.N,Net-(D10-Pad2)*%
X93810000Y-83490000D03*
X92540000Y-86030000D03*
%TO.P,Sw10,2,NW*%
%TO.N,Net-(Sw10-Pad2)*%
X87460000Y-86030000D03*
X86190000Y-83490000D03*
%TD*%
%TO.P,Sw2,1,NE*%
%TO.N,Net-(D2-Pad2)*%
X54440000Y-157180000D03*
X55710000Y-154640000D03*
%TO.P,Sw2,2,NW*%
%TO.N,Net-(Sw1-Pad2)*%
X48090000Y-154640000D03*
X49360000Y-157180000D03*
%TD*%
%TO.P,Sw8,1,NE*%
%TO.N,Net-(D8-Pad2)*%
X74760000Y-110540000D03*
X73490000Y-113080000D03*
%TO.P,Sw8,2,NW*%
%TO.N,Net-(Sw7-Pad2)*%
X68410000Y-113080000D03*
X67140000Y-110540000D03*
%TD*%
%TO.P,Sw7,1,NE*%
%TO.N,Net-(D7-Pad2)*%
X73490000Y-94030000D03*
X74760000Y-91490000D03*
%TO.P,Sw7,2,NW*%
%TO.N,Net-(Sw7-Pad2)*%
X67140000Y-91490000D03*
X68410000Y-94030000D03*
%TD*%
%TO.P,Sw15,1,NE*%
%TO.N,Net-(Sw15-Pad1)*%
X111590000Y-130130000D03*
X112860000Y-127590000D03*
%TO.P,Sw15,2,SW*%
%TO.N,Net-(Sw15-Pad2)*%
X105240000Y-127590000D03*
X106510000Y-130130000D03*
%TD*%
%TO.P,Sw5,1,NE*%
%TO.N,Net-(D5-Pad2)*%
X54440000Y-119080000D03*
X55710000Y-116540000D03*
%TO.P,Sw5,2,SW*%
%TO.N,Net-(Sw4-Pad2)*%
X49360000Y-119080000D03*
X48090000Y-116540000D03*
%TD*%
%TO.P,Sw16,1,NE*%
%TO.N,Net-(D16-Pad2)*%
X131910000Y-102540000D03*
X130640000Y-105080000D03*
%TO.P,Sw16,2,SW*%
%TO.N,Net-(Sw17-Pad2)*%
X124290000Y-102540000D03*
X125560000Y-105080000D03*
%TD*%
%TO.P,Sw12,1,NE*%
%TO.N,Net-(D12-Pad2)*%
X92540000Y-124130000D03*
X93810000Y-121590000D03*
%TO.P,Sw12,2,NW*%
%TO.N,Net-(Sw10-Pad2)*%
X86190000Y-121590000D03*
X87460000Y-124130000D03*
%TD*%
%TO.P,Sw11,1,NE*%
%TO.N,Net-(D11-Pad2)*%
X92540000Y-105080000D03*
X93810000Y-102540000D03*
%TO.P,Sw11,2,NW*%
%TO.N,Net-(Sw10-Pad2)*%
X87460000Y-105080000D03*
X86190000Y-102540000D03*
%TD*%
%TO.P,Sw17,1,NE*%
%TO.N,Net-(D17-Pad2)*%
X131910000Y-121590000D03*
X130640000Y-124130000D03*
%TO.P,Sw17,2,NW*%
%TO.N,Net-(Sw17-Pad2)*%
X125560000Y-124130000D03*
X124290000Y-121590000D03*
%TD*%
D11*
%TO.P,U1,1,PA02_A0_D0*%
%TO.N,Net-(Sw1-Pad2)*%
X24150000Y-91770000D03*
D12*
%TO.P,U1,2,PA4_A1_D1*%
%TO.N,Net-(Sw4-Pad2)*%
X24150000Y-94310000D03*
%TO.P,U1,3,PA10_A2_D2*%
%TO.N,Net-(Sw7-Pad2)*%
X24150000Y-96850000D03*
%TO.P,U1,4,PA11_A3_D3*%
%TO.N,Net-(Sw10-Pad2)*%
X24150000Y-99390000D03*
%TO.P,U1,5,PA8_A4_D4_SDA*%
%TO.N,Net-(J1-PadR2)*%
X24150000Y-101930000D03*
%TO.P,U1,6,PA9_A5_D5_SCL*%
%TO.N,Net-(J1-PadR1)*%
X24150000Y-104470000D03*
%TO.P,U1,7,PB08_A6_D6_TX*%
%TO.N,Net-(Sw15-Pad2)*%
X24150000Y-107010000D03*
%TO.P,U1,8,PB09_A7_D7_RX*%
%TO.N,Net-(Sw17-Pad2)*%
X39390000Y-107010000D03*
%TO.P,U1,9,PA7_A8_D8_SCK*%
%TO.N,Net-(R1-Pad1)*%
X39390000Y-104470000D03*
%TO.P,U1,10,PA5_A9_D9_MISO*%
%TO.N,Net-(R2-Pad1)*%
X39390000Y-101930000D03*
%TO.P,U1,11,PA6_A10_D10_MOSI*%
%TO.N,Net-(R3-Pad1)*%
X39390000Y-99390000D03*
%TO.P,U1,12,3V3*%
%TO.N,Net-(J1-PadT)*%
X39390000Y-96850000D03*
%TO.P,U1,13,GND*%
%TO.N,Net-(J1-PadS)*%
X39390000Y-94310000D03*
%TO.P,U1,14,5V*%
%TO.N,unconnected-(U1-Pad14)*%
X39390000Y-91770000D03*
%TD*%
D10*
%TO.P,Sw3,1,NE*%
%TO.N,Net-(D3-Pad2)*%
X73490000Y-154180000D03*
X74760000Y-151640000D03*
%TO.P,Sw3,2,NW*%
%TO.N,Net-(Sw1-Pad2)*%
X67140000Y-151640000D03*
X68410000Y-154180000D03*
%TD*%
%TO.P,Sw13,1,NE*%
%TO.N,Net-(D13-Pad2)*%
X112860000Y-89490000D03*
X111590000Y-92030000D03*
%TO.P,Sw13,2,SW*%
%TO.N,Net-(Sw15-Pad2)*%
X106510000Y-92030000D03*
X105240000Y-89490000D03*
%TD*%
%TO.P,Sw9,1,NE*%
%TO.N,Net-(D9-Pad2)*%
X74760000Y-129590000D03*
X73490000Y-132130000D03*
%TO.P,Sw9,2,NW*%
%TO.N,Net-(Sw7-Pad2)*%
X68410000Y-132130000D03*
X67140000Y-129590000D03*
%TD*%
%TO.P,Sw4,1,NE*%
%TO.N,Net-(D4-Pad2)*%
X54440000Y-100030000D03*
X55710000Y-97490000D03*
%TO.P,Sw4,2,SW*%
%TO.N,Net-(Sw4-Pad2)*%
X49360000Y-100030000D03*
X48090000Y-97490000D03*
%TD*%
%TO.P,Sw6,1,NE*%
%TO.N,Net-(D6-Pad2)*%
X55710000Y-135590000D03*
X54440000Y-138130000D03*
%TO.P,Sw6,2,NW*%
%TO.N,Net-(Sw4-Pad2)*%
X49360000Y-138130000D03*
X48090000Y-135590000D03*
%TD*%
%TO.P,Sw18,1,NE*%
%TO.N,Net-(D18-Pad2)*%
X130640000Y-143180000D03*
X131910000Y-140640000D03*
%TO.P,Sw18,2,NW*%
%TO.N,Net-(Sw17-Pad2)*%
X124290000Y-140640000D03*
X125560000Y-143180000D03*
%TD*%
%TO.P,Sw14,1,NE*%
%TO.N,Net-(D14-Pad2)*%
X111590000Y-111080000D03*
X112860000Y-108540000D03*
%TO.P,Sw14,2,SW*%
%TO.N,Net-(Sw15-Pad2)*%
X106510000Y-111080000D03*
X105240000Y-108540000D03*
%TD*%
D13*
%TO.P,J1,R1*%
%TO.N,Net-(J1-PadR1)*%
X27475000Y-126250000D03*
%TO.P,J1,R2*%
%TO.N,Net-(J1-PadR2)*%
X24475000Y-126250000D03*
%TO.P,J1,S*%
%TO.N,Net-(J1-PadS)*%
X32575000Y-119750000D03*
%TO.P,J1,T*%
%TO.N,Net-(J1-PadT)*%
X31475000Y-126250000D03*
%TD*%
D14*
%TO.N,Net-(D11-Pad1)*%
X41810000Y-123970000D03*
X45510000Y-123420000D03*
%TO.N,Net-(J1-PadR1)*%
X27420000Y-122590000D03*
%TO.N,Net-(J1-PadR2)*%
X24430000Y-123770000D03*
%TO.N,Net-(J1-PadS)*%
X28075000Y-110650000D03*
X32520000Y-122970000D03*
%TO.N,Net-(J1-PadT)*%
X31420000Y-124290000D03*
%TD*%
D15*
%TO.N,Net-(D11-Pad1)*%
X41810000Y-123970000D02*
X44960000Y-123970000D01*
X44960000Y-123970000D02*
X45510000Y-123420000D01*
%TO.N,Net-(J1-PadR1)*%
X27400000Y-122610000D02*
X27420000Y-122590000D01*
X27400000Y-126990000D02*
X27400000Y-122610000D01*
%TO.N,Net-(J1-PadR2)*%
X24430000Y-123770000D02*
X24400000Y-123800000D01*
X24400000Y-123800000D02*
X24400000Y-126990000D01*
%TO.N,Net-(J1-PadS)*%
X32575000Y-116200000D02*
X30475000Y-114100000D01*
X30475000Y-114100000D02*
X30475000Y-112250000D01*
X30475000Y-112250000D02*
X28875000Y-110650000D01*
X32575000Y-119750000D02*
X32575000Y-116200000D01*
X32520000Y-122970000D02*
X32520000Y-120510000D01*
X28875000Y-110650000D02*
X28075000Y-110650000D01*
X32520000Y-120510000D02*
X32500000Y-120490000D01*
%TO.N,Net-(J1-PadT)*%
X31400000Y-124310000D02*
X31420000Y-124290000D01*
X31400000Y-126990000D02*
X31400000Y-124310000D01*
%TO.N,Net-(Sw1-Pad2)*%
X21750479Y-122534207D02*
X22000480Y-122284206D01*
X22000480Y-122284206D02*
X22000480Y-93919520D01*
X23100000Y-146700000D02*
X23100000Y-124815314D01*
X21750479Y-123465793D02*
X21750479Y-122534207D01*
X23100000Y-124815314D02*
X21750479Y-123465793D01*
X22000480Y-93919520D02*
X24150000Y-91770000D01*
X29040000Y-152640000D02*
X23100000Y-146700000D01*
X29040000Y-157640000D02*
X29040000Y-152640000D01*
%TO.N,Net-(Sw4-Pad2)*%
X48090000Y-135590000D02*
X48090000Y-120350000D01*
X48090000Y-120350000D02*
X49360000Y-119080000D01*
X48090000Y-101300000D02*
X49360000Y-100030000D01*
X48090000Y-116540000D02*
X48090000Y-101300000D01*
%TO.N,Net-(Sw7-Pad2)*%
X67140000Y-129590000D02*
X67140000Y-114350000D01*
X67140000Y-110540000D02*
X67140000Y-95300000D01*
X67140000Y-114350000D02*
X68410000Y-113080000D01*
X67140000Y-95300000D02*
X68410000Y-94030000D01*
%TO.N,Net-(Sw10-Pad2)*%
X40670000Y-126940000D02*
X40670000Y-125960000D01*
X70650000Y-140850000D02*
X40570000Y-140850000D01*
X86190000Y-87300000D02*
X87460000Y-86030000D01*
X38010000Y-123300000D02*
X38010000Y-110330000D01*
X40570000Y-127040000D02*
X40670000Y-126940000D01*
X22450000Y-109270000D02*
X22450000Y-101090000D01*
X86190000Y-102540000D02*
X86190000Y-87300000D01*
X37430000Y-109750000D02*
X22930000Y-109750000D01*
X40670000Y-125960000D02*
X38010000Y-123300000D01*
X86190000Y-125310000D02*
X70650000Y-140850000D01*
X86190000Y-121590000D02*
X86190000Y-106350000D01*
X86190000Y-121590000D02*
X86190000Y-125310000D01*
X40570000Y-140850000D02*
X40570000Y-127040000D01*
X22450000Y-101090000D02*
X24150000Y-99390000D01*
X22930000Y-109750000D02*
X22450000Y-109270000D01*
X38010000Y-110330000D02*
X37430000Y-109750000D01*
X86190000Y-106350000D02*
X87460000Y-105080000D01*
%TO.N,Net-(Sw15-Pad2)*%
X81780000Y-79450000D02*
X81790000Y-79460000D01*
X81200000Y-80800000D02*
X63870000Y-80800000D01*
X105240000Y-83640000D02*
X95440000Y-73840000D01*
X105240000Y-89490000D02*
X105240000Y-83640000D01*
X105240000Y-127590000D02*
X105240000Y-112350000D01*
X63870000Y-80800000D02*
X62499520Y-82170480D01*
X81780000Y-75130000D02*
X81780000Y-79450000D01*
X62499520Y-82170480D02*
X62499520Y-86146198D01*
X105240000Y-108540000D02*
X105240000Y-93300000D01*
X61445718Y-87200000D02*
X43760000Y-87200000D01*
X83420000Y-73490000D02*
X81780000Y-75130000D01*
X95440000Y-73840000D02*
X95440000Y-73790000D01*
X39840049Y-108096511D02*
X25236511Y-108096511D01*
X25236511Y-108096511D02*
X24150000Y-107010000D01*
X62499520Y-86146198D02*
X61445718Y-87200000D01*
X43760000Y-87200000D02*
X41619520Y-89340480D01*
X41619520Y-89340480D02*
X41619520Y-106317040D01*
X81790000Y-80210000D02*
X81200000Y-80800000D01*
X81790000Y-79460000D02*
X81790000Y-80210000D01*
X105240000Y-93300000D02*
X106510000Y-92030000D01*
X41619520Y-106317040D02*
X39840049Y-108096511D01*
X95140000Y-73490000D02*
X83420000Y-73490000D01*
X95440000Y-73790000D02*
X95140000Y-73490000D01*
X105240000Y-112350000D02*
X106510000Y-111080000D01*
%TO.N,Net-(Sw17-Pad2)*%
X124290000Y-92590000D02*
X118300000Y-86600000D01*
X80670000Y-80130000D02*
X63560000Y-80130000D01*
X43230000Y-86520000D02*
X41170000Y-88580000D01*
X124290000Y-106350000D02*
X125560000Y-105080000D01*
X61490000Y-86520000D02*
X43230000Y-86520000D01*
X81160000Y-74970000D02*
X81160000Y-79640000D01*
X95460000Y-72930000D02*
X83200000Y-72930000D01*
X81160000Y-79640000D02*
X80670000Y-80130000D01*
X63560000Y-80130000D02*
X62050000Y-81640000D01*
X100830000Y-78300000D02*
X95460000Y-72930000D01*
X41170000Y-88580000D02*
X41170000Y-105230000D01*
X41170000Y-105230000D02*
X39390000Y-107010000D01*
X83200000Y-72930000D02*
X81160000Y-74970000D01*
X124290000Y-125400000D02*
X125560000Y-124130000D01*
X124290000Y-102540000D02*
X124290000Y-92590000D01*
X62050000Y-81640000D02*
X62050000Y-85960000D01*
X62050000Y-85960000D02*
X61490000Y-86520000D01*
X124290000Y-140640000D02*
X124290000Y-125400000D01*
X124290000Y-121590000D02*
X124290000Y-106350000D01*
X118300000Y-86600000D02*
X118300000Y-80700000D01*
X115900000Y-78300000D02*
X100830000Y-78300000D01*
X118300000Y-80700000D02*
X115900000Y-78300000D01*
%TD*%
M02*
