%TF.GenerationSoftware,KiCad,Pcbnew,(6.0.4)*%
%TF.CreationDate,2022-04-22T20:25:04+08:00*%
%TF.ProjectId,Slice36,536c6963-6533-4362-9e6b-696361645f70,rev?*%
%TF.SameCoordinates,Original*%
%TF.FileFunction,Legend,Top*%
%TF.FilePolarity,Positive*%
%FSLAX46Y46*%
G04 Gerber Fmt 4.6, Leading zero omitted, Abs format (unit mm)*
G04 Created by KiCad (PCBNEW (6.0.4)) date 2022-04-22 20:25:04*
%MOMM*%
%LPD*%
G01*
G04 APERTURE LIST*
%ADD10C,0.150000*%
%ADD11C,0.400000*%
%ADD12C,0.120000*%
G04 APERTURE END LIST*
D10*
X48525000Y-162125000D02*
G75*
G03*
X48525000Y-162125000I-4000000J0D01*
G01*
X137795789Y-132195789D02*
G75*
G03*
X137795789Y-132195789I-4000000J0D01*
G01*
X37025000Y-148125000D02*
G75*
G03*
X37025000Y-148125000I-4000000J0D01*
G01*
X132815283Y-81716968D02*
G75*
G03*
X132815283Y-81716968I-4000000J0D01*
G01*
X35791515Y-99270274D02*
G75*
G03*
X35791515Y-99270274I-4000000J0D01*
G01*
X120096772Y-142892997D02*
G75*
G03*
X120096772Y-142892997I-4000000J0D01*
G01*
D11*
X81933273Y-139049523D02*
X82207083Y-139144761D01*
X82683273Y-139144761D01*
X82885654Y-139049523D01*
X82992797Y-138954285D01*
X83111845Y-138763809D01*
X83135654Y-138573333D01*
X83064226Y-138382857D01*
X82980892Y-138287619D01*
X82802321Y-138192380D01*
X82433273Y-138097142D01*
X82254702Y-138001904D01*
X82171369Y-137906666D01*
X82099940Y-137716190D01*
X82123750Y-137525714D01*
X82242797Y-137335238D01*
X82349940Y-137240000D01*
X82552321Y-137144761D01*
X83028511Y-137144761D01*
X83302321Y-137240000D01*
X85611845Y-137049523D02*
X83576130Y-139620952D01*
X86016607Y-139144761D02*
X86183273Y-137811428D01*
X86266607Y-137144761D02*
X86159464Y-137240000D01*
X86242797Y-137335238D01*
X86349940Y-137240000D01*
X86266607Y-137144761D01*
X86242797Y-137335238D01*
X87838035Y-139049523D02*
X87635654Y-139144761D01*
X87254702Y-139144761D01*
X87076130Y-139049523D01*
X86992797Y-138954285D01*
X86921369Y-138763809D01*
X86992797Y-138192380D01*
X87111845Y-138001904D01*
X87218988Y-137906666D01*
X87421369Y-137811428D01*
X87802321Y-137811428D01*
X87980892Y-137906666D01*
X89457083Y-139049523D02*
X89254702Y-139144761D01*
X88873750Y-139144761D01*
X88695178Y-139049523D01*
X88623750Y-138859047D01*
X88718988Y-138097142D01*
X88838035Y-137906666D01*
X89040416Y-137811428D01*
X89421369Y-137811428D01*
X89599940Y-137906666D01*
X89671369Y-138097142D01*
X89647559Y-138287619D01*
X88671369Y-138478095D01*
X90457083Y-137144761D02*
X91695178Y-137144761D01*
X90933273Y-137906666D01*
X91218988Y-137906666D01*
X91397559Y-138001904D01*
X91480892Y-138097142D01*
X91552321Y-138287619D01*
X91492797Y-138763809D01*
X91373750Y-138954285D01*
X91266607Y-139049523D01*
X91064226Y-139144761D01*
X90492797Y-139144761D01*
X90314226Y-139049523D01*
X90230892Y-138954285D01*
X93409464Y-137144761D02*
X93028511Y-137144761D01*
X92826130Y-137240000D01*
X92718988Y-137335238D01*
X92492797Y-137620952D01*
X92349940Y-138001904D01*
X92254702Y-138763809D01*
X92326130Y-138954285D01*
X92409464Y-139049523D01*
X92588035Y-139144761D01*
X92968988Y-139144761D01*
X93171369Y-139049523D01*
X93278511Y-138954285D01*
X93397559Y-138763809D01*
X93457083Y-138287619D01*
X93385654Y-138097142D01*
X93302321Y-138001904D01*
X93123750Y-137906666D01*
X92742797Y-137906666D01*
X92540416Y-138001904D01*
X92433273Y-138097142D01*
X92314226Y-138287619D01*
X95695178Y-137144761D02*
X96111845Y-139144761D01*
X97028511Y-137144761D01*
X97576130Y-137335238D02*
X97683273Y-137240000D01*
X97885654Y-137144761D01*
X98361845Y-137144761D01*
X98540416Y-137240000D01*
X98623750Y-137335238D01*
X98695178Y-137525714D01*
X98671369Y-137716190D01*
X98540416Y-138001904D01*
X97254702Y-139144761D01*
X98492797Y-139144761D01*
X99373750Y-138954285D02*
X99457083Y-139049523D01*
X99349940Y-139144761D01*
X99266607Y-139049523D01*
X99373750Y-138954285D01*
X99349940Y-139144761D01*
X100933273Y-137144761D02*
X101123750Y-137144761D01*
X101302321Y-137240000D01*
X101385654Y-137335238D01*
X101457083Y-137525714D01*
X101504702Y-137906666D01*
X101445178Y-138382857D01*
X101302321Y-138763809D01*
X101183273Y-138954285D01*
X101076130Y-139049523D01*
X100873750Y-139144761D01*
X100683273Y-139144761D01*
X100504702Y-139049523D01*
X100421369Y-138954285D01*
X100349940Y-138763809D01*
X100302321Y-138382857D01*
X100361845Y-137906666D01*
X100504702Y-137525714D01*
X100623750Y-137335238D01*
X100730892Y-137240000D01*
X100933273Y-137144761D01*
X85302321Y-142364761D02*
X85552321Y-140364761D01*
X86040416Y-141793333D01*
X86885654Y-140364761D01*
X86635654Y-142364761D01*
X88730892Y-142364761D02*
X88183273Y-141412380D01*
X87588035Y-142364761D02*
X87838035Y-140364761D01*
X88599940Y-140364761D01*
X88778511Y-140460000D01*
X88861845Y-140555238D01*
X88933273Y-140745714D01*
X88897559Y-141031428D01*
X88778511Y-141221904D01*
X88671369Y-141317142D01*
X88468988Y-141412380D01*
X87707083Y-141412380D01*
X90361845Y-142269523D02*
X90159464Y-142364761D01*
X89778511Y-142364761D01*
X89599940Y-142269523D01*
X89528511Y-142079047D01*
X89623750Y-141317142D01*
X89742797Y-141126666D01*
X89945178Y-141031428D01*
X90326130Y-141031428D01*
X90504702Y-141126666D01*
X90576130Y-141317142D01*
X90552321Y-141507619D01*
X89576130Y-141698095D01*
X92159464Y-142364761D02*
X92290416Y-141317142D01*
X92218988Y-141126666D01*
X92040416Y-141031428D01*
X91659464Y-141031428D01*
X91457083Y-141126666D01*
X92171369Y-142269523D02*
X91968988Y-142364761D01*
X91492797Y-142364761D01*
X91314226Y-142269523D01*
X91242797Y-142079047D01*
X91266607Y-141888571D01*
X91385654Y-141698095D01*
X91588035Y-141602857D01*
X92064226Y-141602857D01*
X92266607Y-141507619D01*
X93088035Y-141031428D02*
X93397559Y-142364761D01*
X94040416Y-141031428D01*
X94921369Y-142364761D02*
X94742797Y-142269523D01*
X94671369Y-142079047D01*
X94885654Y-140364761D01*
X96457083Y-142269523D02*
X96254702Y-142364761D01*
X95873750Y-142364761D01*
X95695178Y-142269523D01*
X95623750Y-142079047D01*
X95718988Y-141317142D01*
X95838035Y-141126666D01*
X96040416Y-141031428D01*
X96421369Y-141031428D01*
X96599940Y-141126666D01*
X96671369Y-141317142D01*
X96647559Y-141507619D01*
X95671369Y-141698095D01*
X97373750Y-141031428D02*
X97683273Y-142364761D01*
X98326130Y-141031428D02*
X97683273Y-142364761D01*
X97433273Y-142840952D01*
X97326130Y-142936190D01*
X97123750Y-143031428D01*
D10*
%TO.C,Sw1*%
X31564285Y-163154761D02*
X31707142Y-163202380D01*
X31945238Y-163202380D01*
X32040476Y-163154761D01*
X32088095Y-163107142D01*
X32135714Y-163011904D01*
X32135714Y-162916666D01*
X32088095Y-162821428D01*
X32040476Y-162773809D01*
X31945238Y-162726190D01*
X31754761Y-162678571D01*
X31659523Y-162630952D01*
X31611904Y-162583333D01*
X31564285Y-162488095D01*
X31564285Y-162392857D01*
X31611904Y-162297619D01*
X31659523Y-162250000D01*
X31754761Y-162202380D01*
X31992857Y-162202380D01*
X32135714Y-162250000D01*
X32469047Y-162535714D02*
X32659523Y-163202380D01*
X32850000Y-162726190D01*
X33040476Y-163202380D01*
X33230952Y-162535714D01*
X34135714Y-163202380D02*
X33564285Y-163202380D01*
X33850000Y-163202380D02*
X33850000Y-162202380D01*
X33754761Y-162345238D01*
X33659523Y-162440476D01*
X33564285Y-162488095D01*
%TO.C,Sw10*%
X88238095Y-89609761D02*
X88380952Y-89657380D01*
X88619047Y-89657380D01*
X88714285Y-89609761D01*
X88761904Y-89562142D01*
X88809523Y-89466904D01*
X88809523Y-89371666D01*
X88761904Y-89276428D01*
X88714285Y-89228809D01*
X88619047Y-89181190D01*
X88428571Y-89133571D01*
X88333333Y-89085952D01*
X88285714Y-89038333D01*
X88238095Y-88943095D01*
X88238095Y-88847857D01*
X88285714Y-88752619D01*
X88333333Y-88705000D01*
X88428571Y-88657380D01*
X88666666Y-88657380D01*
X88809523Y-88705000D01*
X89142857Y-88990714D02*
X89333333Y-89657380D01*
X89523809Y-89181190D01*
X89714285Y-89657380D01*
X89904761Y-88990714D01*
X90809523Y-89657380D02*
X90238095Y-89657380D01*
X90523809Y-89657380D02*
X90523809Y-88657380D01*
X90428571Y-88800238D01*
X90333333Y-88895476D01*
X90238095Y-88943095D01*
X91428571Y-88657380D02*
X91523809Y-88657380D01*
X91619047Y-88705000D01*
X91666666Y-88752619D01*
X91714285Y-88847857D01*
X91761904Y-89038333D01*
X91761904Y-89276428D01*
X91714285Y-89466904D01*
X91666666Y-89562142D01*
X91619047Y-89609761D01*
X91523809Y-89657380D01*
X91428571Y-89657380D01*
X91333333Y-89609761D01*
X91285714Y-89562142D01*
X91238095Y-89466904D01*
X91190476Y-89276428D01*
X91190476Y-89038333D01*
X91238095Y-88847857D01*
X91285714Y-88752619D01*
X91333333Y-88705000D01*
X91428571Y-88657380D01*
%TO.C,D10*%
X98877380Y-82364285D02*
X97877380Y-82364285D01*
X97877380Y-82126190D01*
X97925000Y-81983333D01*
X98020238Y-81888095D01*
X98115476Y-81840476D01*
X98305952Y-81792857D01*
X98448809Y-81792857D01*
X98639285Y-81840476D01*
X98734523Y-81888095D01*
X98829761Y-81983333D01*
X98877380Y-82126190D01*
X98877380Y-82364285D01*
X98877380Y-80840476D02*
X98877380Y-81411904D01*
X98877380Y-81126190D02*
X97877380Y-81126190D01*
X98020238Y-81221428D01*
X98115476Y-81316666D01*
X98163095Y-81411904D01*
X97877380Y-80221428D02*
X97877380Y-80126190D01*
X97925000Y-80030952D01*
X97972619Y-79983333D01*
X98067857Y-79935714D01*
X98258333Y-79888095D01*
X98496428Y-79888095D01*
X98686904Y-79935714D01*
X98782142Y-79983333D01*
X98829761Y-80030952D01*
X98877380Y-80126190D01*
X98877380Y-80221428D01*
X98829761Y-80316666D01*
X98782142Y-80364285D01*
X98686904Y-80411904D01*
X98496428Y-80459523D01*
X98258333Y-80459523D01*
X98067857Y-80411904D01*
X97972619Y-80364285D01*
X97925000Y-80316666D01*
X97877380Y-80221428D01*
%TO.C,REF\u002A\u002A*%
X76066666Y-158727380D02*
X75733333Y-158251190D01*
X75495238Y-158727380D02*
X75495238Y-157727380D01*
X75876190Y-157727380D01*
X75971428Y-157775000D01*
X76019047Y-157822619D01*
X76066666Y-157917857D01*
X76066666Y-158060714D01*
X76019047Y-158155952D01*
X75971428Y-158203571D01*
X75876190Y-158251190D01*
X75495238Y-158251190D01*
X76495238Y-158203571D02*
X76828571Y-158203571D01*
X76971428Y-158727380D02*
X76495238Y-158727380D01*
X76495238Y-157727380D01*
X76971428Y-157727380D01*
X77733333Y-158203571D02*
X77400000Y-158203571D01*
X77400000Y-158727380D02*
X77400000Y-157727380D01*
X77876190Y-157727380D01*
X78400000Y-157727380D02*
X78400000Y-157965476D01*
X78161904Y-157870238D02*
X78400000Y-157965476D01*
X78638095Y-157870238D01*
X78257142Y-158155952D02*
X78400000Y-157965476D01*
X78542857Y-158155952D01*
X79161904Y-157727380D02*
X79161904Y-157965476D01*
X78923809Y-157870238D02*
X79161904Y-157965476D01*
X79400000Y-157870238D01*
X79019047Y-158155952D02*
X79161904Y-157965476D01*
X79304761Y-158155952D01*
%TO.C,D17*%
X136927380Y-120039285D02*
X135927380Y-120039285D01*
X135927380Y-119801190D01*
X135975000Y-119658333D01*
X136070238Y-119563095D01*
X136165476Y-119515476D01*
X136355952Y-119467857D01*
X136498809Y-119467857D01*
X136689285Y-119515476D01*
X136784523Y-119563095D01*
X136879761Y-119658333D01*
X136927380Y-119801190D01*
X136927380Y-120039285D01*
X136927380Y-118515476D02*
X136927380Y-119086904D01*
X136927380Y-118801190D02*
X135927380Y-118801190D01*
X136070238Y-118896428D01*
X136165476Y-118991666D01*
X136213095Y-119086904D01*
X135927380Y-118182142D02*
X135927380Y-117515476D01*
X136927380Y-117944047D01*
%TO.C,Sw2*%
X50589285Y-161004761D02*
X50732142Y-161052380D01*
X50970238Y-161052380D01*
X51065476Y-161004761D01*
X51113095Y-160957142D01*
X51160714Y-160861904D01*
X51160714Y-160766666D01*
X51113095Y-160671428D01*
X51065476Y-160623809D01*
X50970238Y-160576190D01*
X50779761Y-160528571D01*
X50684523Y-160480952D01*
X50636904Y-160433333D01*
X50589285Y-160338095D01*
X50589285Y-160242857D01*
X50636904Y-160147619D01*
X50684523Y-160100000D01*
X50779761Y-160052380D01*
X51017857Y-160052380D01*
X51160714Y-160100000D01*
X51494047Y-160385714D02*
X51684523Y-161052380D01*
X51875000Y-160576190D01*
X52065476Y-161052380D01*
X52255952Y-160385714D01*
X52589285Y-160147619D02*
X52636904Y-160100000D01*
X52732142Y-160052380D01*
X52970238Y-160052380D01*
X53065476Y-160100000D01*
X53113095Y-160147619D01*
X53160714Y-160242857D01*
X53160714Y-160338095D01*
X53113095Y-160480952D01*
X52541666Y-161052380D01*
X53160714Y-161052380D01*
%TO.C,D1*%
X41827380Y-153863095D02*
X40827380Y-153863095D01*
X40827380Y-153625000D01*
X40875000Y-153482142D01*
X40970238Y-153386904D01*
X41065476Y-153339285D01*
X41255952Y-153291666D01*
X41398809Y-153291666D01*
X41589285Y-153339285D01*
X41684523Y-153386904D01*
X41779761Y-153482142D01*
X41827380Y-153625000D01*
X41827380Y-153863095D01*
X41827380Y-152339285D02*
X41827380Y-152910714D01*
X41827380Y-152625000D02*
X40827380Y-152625000D01*
X40970238Y-152720238D01*
X41065476Y-152815476D01*
X41113095Y-152910714D01*
%TO.C,D5*%
X58902380Y-118538095D02*
X57902380Y-118538095D01*
X57902380Y-118300000D01*
X57950000Y-118157142D01*
X58045238Y-118061904D01*
X58140476Y-118014285D01*
X58330952Y-117966666D01*
X58473809Y-117966666D01*
X58664285Y-118014285D01*
X58759523Y-118061904D01*
X58854761Y-118157142D01*
X58902380Y-118300000D01*
X58902380Y-118538095D01*
X57902380Y-117061904D02*
X57902380Y-117538095D01*
X58378571Y-117585714D01*
X58330952Y-117538095D01*
X58283333Y-117442857D01*
X58283333Y-117204761D01*
X58330952Y-117109523D01*
X58378571Y-117061904D01*
X58473809Y-117014285D01*
X58711904Y-117014285D01*
X58807142Y-117061904D01*
X58854761Y-117109523D01*
X58902380Y-117204761D01*
X58902380Y-117442857D01*
X58854761Y-117538095D01*
X58807142Y-117585714D01*
%TO.C,R1*%
X43972380Y-144366666D02*
X43496190Y-144700000D01*
X43972380Y-144938095D02*
X42972380Y-144938095D01*
X42972380Y-144557142D01*
X43020000Y-144461904D01*
X43067619Y-144414285D01*
X43162857Y-144366666D01*
X43305714Y-144366666D01*
X43400952Y-144414285D01*
X43448571Y-144461904D01*
X43496190Y-144557142D01*
X43496190Y-144938095D01*
X43972380Y-143414285D02*
X43972380Y-143985714D01*
X43972380Y-143700000D02*
X42972380Y-143700000D01*
X43115238Y-143795238D01*
X43210476Y-143890476D01*
X43258095Y-143985714D01*
%TO.C,D2*%
X60377380Y-150838095D02*
X59377380Y-150838095D01*
X59377380Y-150600000D01*
X59425000Y-150457142D01*
X59520238Y-150361904D01*
X59615476Y-150314285D01*
X59805952Y-150266666D01*
X59948809Y-150266666D01*
X60139285Y-150314285D01*
X60234523Y-150361904D01*
X60329761Y-150457142D01*
X60377380Y-150600000D01*
X60377380Y-150838095D01*
X59472619Y-149885714D02*
X59425000Y-149838095D01*
X59377380Y-149742857D01*
X59377380Y-149504761D01*
X59425000Y-149409523D01*
X59472619Y-149361904D01*
X59567857Y-149314285D01*
X59663095Y-149314285D01*
X59805952Y-149361904D01*
X60377380Y-149933333D01*
X60377380Y-149314285D01*
%TO.C,Sw8*%
X69664285Y-116659761D02*
X69807142Y-116707380D01*
X70045238Y-116707380D01*
X70140476Y-116659761D01*
X70188095Y-116612142D01*
X70235714Y-116516904D01*
X70235714Y-116421666D01*
X70188095Y-116326428D01*
X70140476Y-116278809D01*
X70045238Y-116231190D01*
X69854761Y-116183571D01*
X69759523Y-116135952D01*
X69711904Y-116088333D01*
X69664285Y-115993095D01*
X69664285Y-115897857D01*
X69711904Y-115802619D01*
X69759523Y-115755000D01*
X69854761Y-115707380D01*
X70092857Y-115707380D01*
X70235714Y-115755000D01*
X70569047Y-116040714D02*
X70759523Y-116707380D01*
X70950000Y-116231190D01*
X71140476Y-116707380D01*
X71330952Y-116040714D01*
X71854761Y-116135952D02*
X71759523Y-116088333D01*
X71711904Y-116040714D01*
X71664285Y-115945476D01*
X71664285Y-115897857D01*
X71711904Y-115802619D01*
X71759523Y-115755000D01*
X71854761Y-115707380D01*
X72045238Y-115707380D01*
X72140476Y-115755000D01*
X72188095Y-115802619D01*
X72235714Y-115897857D01*
X72235714Y-115945476D01*
X72188095Y-116040714D01*
X72140476Y-116088333D01*
X72045238Y-116135952D01*
X71854761Y-116135952D01*
X71759523Y-116183571D01*
X71711904Y-116231190D01*
X71664285Y-116326428D01*
X71664285Y-116516904D01*
X71711904Y-116612142D01*
X71759523Y-116659761D01*
X71854761Y-116707380D01*
X72045238Y-116707380D01*
X72140476Y-116659761D01*
X72188095Y-116612142D01*
X72235714Y-116516904D01*
X72235714Y-116326428D01*
X72188095Y-116231190D01*
X72140476Y-116183571D01*
X72045238Y-116135952D01*
%TO.C,D12*%
X98852380Y-120289285D02*
X97852380Y-120289285D01*
X97852380Y-120051190D01*
X97900000Y-119908333D01*
X97995238Y-119813095D01*
X98090476Y-119765476D01*
X98280952Y-119717857D01*
X98423809Y-119717857D01*
X98614285Y-119765476D01*
X98709523Y-119813095D01*
X98804761Y-119908333D01*
X98852380Y-120051190D01*
X98852380Y-120289285D01*
X98852380Y-118765476D02*
X98852380Y-119336904D01*
X98852380Y-119051190D02*
X97852380Y-119051190D01*
X97995238Y-119146428D01*
X98090476Y-119241666D01*
X98138095Y-119336904D01*
X97947619Y-118384523D02*
X97900000Y-118336904D01*
X97852380Y-118241666D01*
X97852380Y-118003571D01*
X97900000Y-117908333D01*
X97947619Y-117860714D01*
X98042857Y-117813095D01*
X98138095Y-117813095D01*
X98280952Y-117860714D01*
X98852380Y-118432142D01*
X98852380Y-117813095D01*
%TO.C,Sw7*%
X69664285Y-97609761D02*
X69807142Y-97657380D01*
X70045238Y-97657380D01*
X70140476Y-97609761D01*
X70188095Y-97562142D01*
X70235714Y-97466904D01*
X70235714Y-97371666D01*
X70188095Y-97276428D01*
X70140476Y-97228809D01*
X70045238Y-97181190D01*
X69854761Y-97133571D01*
X69759523Y-97085952D01*
X69711904Y-97038333D01*
X69664285Y-96943095D01*
X69664285Y-96847857D01*
X69711904Y-96752619D01*
X69759523Y-96705000D01*
X69854761Y-96657380D01*
X70092857Y-96657380D01*
X70235714Y-96705000D01*
X70569047Y-96990714D02*
X70759523Y-97657380D01*
X70950000Y-97181190D01*
X71140476Y-97657380D01*
X71330952Y-96990714D01*
X71616666Y-96657380D02*
X72283333Y-96657380D01*
X71854761Y-97657380D01*
%TO.C,REF\u002A\u002A*%
X47066666Y-77677380D02*
X46733333Y-77201190D01*
X46495238Y-77677380D02*
X46495238Y-76677380D01*
X46876190Y-76677380D01*
X46971428Y-76725000D01*
X47019047Y-76772619D01*
X47066666Y-76867857D01*
X47066666Y-77010714D01*
X47019047Y-77105952D01*
X46971428Y-77153571D01*
X46876190Y-77201190D01*
X46495238Y-77201190D01*
X47495238Y-77153571D02*
X47828571Y-77153571D01*
X47971428Y-77677380D02*
X47495238Y-77677380D01*
X47495238Y-76677380D01*
X47971428Y-76677380D01*
X48733333Y-77153571D02*
X48400000Y-77153571D01*
X48400000Y-77677380D02*
X48400000Y-76677380D01*
X48876190Y-76677380D01*
X49400000Y-76677380D02*
X49400000Y-76915476D01*
X49161904Y-76820238D02*
X49400000Y-76915476D01*
X49638095Y-76820238D01*
X49257142Y-77105952D02*
X49400000Y-76915476D01*
X49542857Y-77105952D01*
X50161904Y-76677380D02*
X50161904Y-76915476D01*
X49923809Y-76820238D02*
X50161904Y-76915476D01*
X50400000Y-76820238D01*
X50019047Y-77105952D02*
X50161904Y-76915476D01*
X50304761Y-77105952D01*
%TO.C,D14*%
X117877380Y-107089285D02*
X116877380Y-107089285D01*
X116877380Y-106851190D01*
X116925000Y-106708333D01*
X117020238Y-106613095D01*
X117115476Y-106565476D01*
X117305952Y-106517857D01*
X117448809Y-106517857D01*
X117639285Y-106565476D01*
X117734523Y-106613095D01*
X117829761Y-106708333D01*
X117877380Y-106851190D01*
X117877380Y-107089285D01*
X117877380Y-105565476D02*
X117877380Y-106136904D01*
X117877380Y-105851190D02*
X116877380Y-105851190D01*
X117020238Y-105946428D01*
X117115476Y-106041666D01*
X117163095Y-106136904D01*
X117210714Y-104708333D02*
X117877380Y-104708333D01*
X116829761Y-104946428D02*
X117544047Y-105184523D01*
X117544047Y-104565476D01*
%TO.C,D8*%
X79777380Y-109463095D02*
X78777380Y-109463095D01*
X78777380Y-109225000D01*
X78825000Y-109082142D01*
X78920238Y-108986904D01*
X79015476Y-108939285D01*
X79205952Y-108891666D01*
X79348809Y-108891666D01*
X79539285Y-108939285D01*
X79634523Y-108986904D01*
X79729761Y-109082142D01*
X79777380Y-109225000D01*
X79777380Y-109463095D01*
X79205952Y-108320238D02*
X79158333Y-108415476D01*
X79110714Y-108463095D01*
X79015476Y-108510714D01*
X78967857Y-108510714D01*
X78872619Y-108463095D01*
X78825000Y-108415476D01*
X78777380Y-108320238D01*
X78777380Y-108129761D01*
X78825000Y-108034523D01*
X78872619Y-107986904D01*
X78967857Y-107939285D01*
X79015476Y-107939285D01*
X79110714Y-107986904D01*
X79158333Y-108034523D01*
X79205952Y-108129761D01*
X79205952Y-108320238D01*
X79253571Y-108415476D01*
X79301190Y-108463095D01*
X79396428Y-108510714D01*
X79586904Y-108510714D01*
X79682142Y-108463095D01*
X79729761Y-108415476D01*
X79777380Y-108320238D01*
X79777380Y-108129761D01*
X79729761Y-108034523D01*
X79682142Y-107986904D01*
X79586904Y-107939285D01*
X79396428Y-107939285D01*
X79301190Y-107986904D01*
X79253571Y-108034523D01*
X79205952Y-108129761D01*
%TO.C,D13*%
X117952380Y-85564285D02*
X116952380Y-85564285D01*
X116952380Y-85326190D01*
X117000000Y-85183333D01*
X117095238Y-85088095D01*
X117190476Y-85040476D01*
X117380952Y-84992857D01*
X117523809Y-84992857D01*
X117714285Y-85040476D01*
X117809523Y-85088095D01*
X117904761Y-85183333D01*
X117952380Y-85326190D01*
X117952380Y-85564285D01*
X117952380Y-84040476D02*
X117952380Y-84611904D01*
X117952380Y-84326190D02*
X116952380Y-84326190D01*
X117095238Y-84421428D01*
X117190476Y-84516666D01*
X117238095Y-84611904D01*
X116952380Y-83707142D02*
X116952380Y-83088095D01*
X117333333Y-83421428D01*
X117333333Y-83278571D01*
X117380952Y-83183333D01*
X117428571Y-83135714D01*
X117523809Y-83088095D01*
X117761904Y-83088095D01*
X117857142Y-83135714D01*
X117904761Y-83183333D01*
X117952380Y-83278571D01*
X117952380Y-83564285D01*
X117904761Y-83659523D01*
X117857142Y-83707142D01*
%TO.C,Sw15*%
X107313095Y-133154761D02*
X107455952Y-133202380D01*
X107694047Y-133202380D01*
X107789285Y-133154761D01*
X107836904Y-133107142D01*
X107884523Y-133011904D01*
X107884523Y-132916666D01*
X107836904Y-132821428D01*
X107789285Y-132773809D01*
X107694047Y-132726190D01*
X107503571Y-132678571D01*
X107408333Y-132630952D01*
X107360714Y-132583333D01*
X107313095Y-132488095D01*
X107313095Y-132392857D01*
X107360714Y-132297619D01*
X107408333Y-132250000D01*
X107503571Y-132202380D01*
X107741666Y-132202380D01*
X107884523Y-132250000D01*
X108217857Y-132535714D02*
X108408333Y-133202380D01*
X108598809Y-132726190D01*
X108789285Y-133202380D01*
X108979761Y-132535714D01*
X109884523Y-133202380D02*
X109313095Y-133202380D01*
X109598809Y-133202380D02*
X109598809Y-132202380D01*
X109503571Y-132345238D01*
X109408333Y-132440476D01*
X109313095Y-132488095D01*
X110789285Y-132202380D02*
X110313095Y-132202380D01*
X110265476Y-132678571D01*
X110313095Y-132630952D01*
X110408333Y-132583333D01*
X110646428Y-132583333D01*
X110741666Y-132630952D01*
X110789285Y-132678571D01*
X110836904Y-132773809D01*
X110836904Y-133011904D01*
X110789285Y-133107142D01*
X110741666Y-133154761D01*
X110646428Y-133202380D01*
X110408333Y-133202380D01*
X110313095Y-133154761D01*
X110265476Y-133107142D01*
%TO.C,REF\u002A\u002A*%
X121066666Y-75552380D02*
X120733333Y-75076190D01*
X120495238Y-75552380D02*
X120495238Y-74552380D01*
X120876190Y-74552380D01*
X120971428Y-74600000D01*
X121019047Y-74647619D01*
X121066666Y-74742857D01*
X121066666Y-74885714D01*
X121019047Y-74980952D01*
X120971428Y-75028571D01*
X120876190Y-75076190D01*
X120495238Y-75076190D01*
X121495238Y-75028571D02*
X121828571Y-75028571D01*
X121971428Y-75552380D02*
X121495238Y-75552380D01*
X121495238Y-74552380D01*
X121971428Y-74552380D01*
X122733333Y-75028571D02*
X122400000Y-75028571D01*
X122400000Y-75552380D02*
X122400000Y-74552380D01*
X122876190Y-74552380D01*
X123400000Y-74552380D02*
X123400000Y-74790476D01*
X123161904Y-74695238D02*
X123400000Y-74790476D01*
X123638095Y-74695238D01*
X123257142Y-74980952D02*
X123400000Y-74790476D01*
X123542857Y-74980952D01*
X124161904Y-74552380D02*
X124161904Y-74790476D01*
X123923809Y-74695238D02*
X124161904Y-74790476D01*
X124400000Y-74695238D01*
X124019047Y-74980952D02*
X124161904Y-74790476D01*
X124304761Y-74980952D01*
%TO.C,J2*%
X27366666Y-117102380D02*
X27366666Y-117816666D01*
X27319047Y-117959523D01*
X27223809Y-118054761D01*
X27080952Y-118102380D01*
X26985714Y-118102380D01*
X27795238Y-117197619D02*
X27842857Y-117150000D01*
X27938095Y-117102380D01*
X28176190Y-117102380D01*
X28271428Y-117150000D01*
X28319047Y-117197619D01*
X28366666Y-117292857D01*
X28366666Y-117388095D01*
X28319047Y-117530952D01*
X27747619Y-118102380D01*
X28366666Y-118102380D01*
%TO.C,REF\u002A\u002A*%
X108441666Y-140327380D02*
X108108333Y-139851190D01*
X107870238Y-140327380D02*
X107870238Y-139327380D01*
X108251190Y-139327380D01*
X108346428Y-139375000D01*
X108394047Y-139422619D01*
X108441666Y-139517857D01*
X108441666Y-139660714D01*
X108394047Y-139755952D01*
X108346428Y-139803571D01*
X108251190Y-139851190D01*
X107870238Y-139851190D01*
X108870238Y-139803571D02*
X109203571Y-139803571D01*
X109346428Y-140327380D02*
X108870238Y-140327380D01*
X108870238Y-139327380D01*
X109346428Y-139327380D01*
X110108333Y-139803571D02*
X109775000Y-139803571D01*
X109775000Y-140327380D02*
X109775000Y-139327380D01*
X110251190Y-139327380D01*
X110775000Y-139327380D02*
X110775000Y-139565476D01*
X110536904Y-139470238D02*
X110775000Y-139565476D01*
X111013095Y-139470238D01*
X110632142Y-139755952D02*
X110775000Y-139565476D01*
X110917857Y-139755952D01*
X111536904Y-139327380D02*
X111536904Y-139565476D01*
X111298809Y-139470238D02*
X111536904Y-139565476D01*
X111775000Y-139470238D01*
X111394047Y-139755952D02*
X111536904Y-139565476D01*
X111679761Y-139755952D01*
%TO.C,Sw5*%
X50614285Y-122659761D02*
X50757142Y-122707380D01*
X50995238Y-122707380D01*
X51090476Y-122659761D01*
X51138095Y-122612142D01*
X51185714Y-122516904D01*
X51185714Y-122421666D01*
X51138095Y-122326428D01*
X51090476Y-122278809D01*
X50995238Y-122231190D01*
X50804761Y-122183571D01*
X50709523Y-122135952D01*
X50661904Y-122088333D01*
X50614285Y-121993095D01*
X50614285Y-121897857D01*
X50661904Y-121802619D01*
X50709523Y-121755000D01*
X50804761Y-121707380D01*
X51042857Y-121707380D01*
X51185714Y-121755000D01*
X51519047Y-122040714D02*
X51709523Y-122707380D01*
X51900000Y-122231190D01*
X52090476Y-122707380D01*
X52280952Y-122040714D01*
X53138095Y-121707380D02*
X52661904Y-121707380D01*
X52614285Y-122183571D01*
X52661904Y-122135952D01*
X52757142Y-122088333D01*
X52995238Y-122088333D01*
X53090476Y-122135952D01*
X53138095Y-122183571D01*
X53185714Y-122278809D01*
X53185714Y-122516904D01*
X53138095Y-122612142D01*
X53090476Y-122659761D01*
X52995238Y-122707380D01*
X52757142Y-122707380D01*
X52661904Y-122659761D01*
X52614285Y-122612142D01*
%TO.C,Sw16*%
X126338095Y-108659761D02*
X126480952Y-108707380D01*
X126719047Y-108707380D01*
X126814285Y-108659761D01*
X126861904Y-108612142D01*
X126909523Y-108516904D01*
X126909523Y-108421666D01*
X126861904Y-108326428D01*
X126814285Y-108278809D01*
X126719047Y-108231190D01*
X126528571Y-108183571D01*
X126433333Y-108135952D01*
X126385714Y-108088333D01*
X126338095Y-107993095D01*
X126338095Y-107897857D01*
X126385714Y-107802619D01*
X126433333Y-107755000D01*
X126528571Y-107707380D01*
X126766666Y-107707380D01*
X126909523Y-107755000D01*
X127242857Y-108040714D02*
X127433333Y-108707380D01*
X127623809Y-108231190D01*
X127814285Y-108707380D01*
X128004761Y-108040714D01*
X128909523Y-108707380D02*
X128338095Y-108707380D01*
X128623809Y-108707380D02*
X128623809Y-107707380D01*
X128528571Y-107850238D01*
X128433333Y-107945476D01*
X128338095Y-107993095D01*
X129766666Y-107707380D02*
X129576190Y-107707380D01*
X129480952Y-107755000D01*
X129433333Y-107802619D01*
X129338095Y-107945476D01*
X129290476Y-108135952D01*
X129290476Y-108516904D01*
X129338095Y-108612142D01*
X129385714Y-108659761D01*
X129480952Y-108707380D01*
X129671428Y-108707380D01*
X129766666Y-108659761D01*
X129814285Y-108612142D01*
X129861904Y-108516904D01*
X129861904Y-108278809D01*
X129814285Y-108183571D01*
X129766666Y-108135952D01*
X129671428Y-108088333D01*
X129480952Y-108088333D01*
X129385714Y-108135952D01*
X129338095Y-108183571D01*
X129290476Y-108278809D01*
%TO.C,R5*%
X31133333Y-114102380D02*
X30800000Y-113626190D01*
X30561904Y-114102380D02*
X30561904Y-113102380D01*
X30942857Y-113102380D01*
X31038095Y-113150000D01*
X31085714Y-113197619D01*
X31133333Y-113292857D01*
X31133333Y-113435714D01*
X31085714Y-113530952D01*
X31038095Y-113578571D01*
X30942857Y-113626190D01*
X30561904Y-113626190D01*
X32038095Y-113102380D02*
X31561904Y-113102380D01*
X31514285Y-113578571D01*
X31561904Y-113530952D01*
X31657142Y-113483333D01*
X31895238Y-113483333D01*
X31990476Y-113530952D01*
X32038095Y-113578571D01*
X32085714Y-113673809D01*
X32085714Y-113911904D01*
X32038095Y-114007142D01*
X31990476Y-114054761D01*
X31895238Y-114102380D01*
X31657142Y-114102380D01*
X31561904Y-114054761D01*
X31514285Y-114007142D01*
%TO.C,Sw12*%
X88238095Y-127709761D02*
X88380952Y-127757380D01*
X88619047Y-127757380D01*
X88714285Y-127709761D01*
X88761904Y-127662142D01*
X88809523Y-127566904D01*
X88809523Y-127471666D01*
X88761904Y-127376428D01*
X88714285Y-127328809D01*
X88619047Y-127281190D01*
X88428571Y-127233571D01*
X88333333Y-127185952D01*
X88285714Y-127138333D01*
X88238095Y-127043095D01*
X88238095Y-126947857D01*
X88285714Y-126852619D01*
X88333333Y-126805000D01*
X88428571Y-126757380D01*
X88666666Y-126757380D01*
X88809523Y-126805000D01*
X89142857Y-127090714D02*
X89333333Y-127757380D01*
X89523809Y-127281190D01*
X89714285Y-127757380D01*
X89904761Y-127090714D01*
X90809523Y-127757380D02*
X90238095Y-127757380D01*
X90523809Y-127757380D02*
X90523809Y-126757380D01*
X90428571Y-126900238D01*
X90333333Y-126995476D01*
X90238095Y-127043095D01*
X91190476Y-126852619D02*
X91238095Y-126805000D01*
X91333333Y-126757380D01*
X91571428Y-126757380D01*
X91666666Y-126805000D01*
X91714285Y-126852619D01*
X91761904Y-126947857D01*
X91761904Y-127043095D01*
X91714285Y-127185952D01*
X91142857Y-127757380D01*
X91761904Y-127757380D01*
%TO.C,D6*%
X59602380Y-137738095D02*
X58602380Y-137738095D01*
X58602380Y-137500000D01*
X58650000Y-137357142D01*
X58745238Y-137261904D01*
X58840476Y-137214285D01*
X59030952Y-137166666D01*
X59173809Y-137166666D01*
X59364285Y-137214285D01*
X59459523Y-137261904D01*
X59554761Y-137357142D01*
X59602380Y-137500000D01*
X59602380Y-137738095D01*
X58602380Y-136309523D02*
X58602380Y-136500000D01*
X58650000Y-136595238D01*
X58697619Y-136642857D01*
X58840476Y-136738095D01*
X59030952Y-136785714D01*
X59411904Y-136785714D01*
X59507142Y-136738095D01*
X59554761Y-136690476D01*
X59602380Y-136595238D01*
X59602380Y-136404761D01*
X59554761Y-136309523D01*
X59507142Y-136261904D01*
X59411904Y-136214285D01*
X59173809Y-136214285D01*
X59078571Y-136261904D01*
X59030952Y-136309523D01*
X58983333Y-136404761D01*
X58983333Y-136595238D01*
X59030952Y-136690476D01*
X59078571Y-136738095D01*
X59173809Y-136785714D01*
%TO.C,D11*%
X98902380Y-101264285D02*
X97902380Y-101264285D01*
X97902380Y-101026190D01*
X97950000Y-100883333D01*
X98045238Y-100788095D01*
X98140476Y-100740476D01*
X98330952Y-100692857D01*
X98473809Y-100692857D01*
X98664285Y-100740476D01*
X98759523Y-100788095D01*
X98854761Y-100883333D01*
X98902380Y-101026190D01*
X98902380Y-101264285D01*
X98902380Y-99740476D02*
X98902380Y-100311904D01*
X98902380Y-100026190D02*
X97902380Y-100026190D01*
X98045238Y-100121428D01*
X98140476Y-100216666D01*
X98188095Y-100311904D01*
X98902380Y-98788095D02*
X98902380Y-99359523D01*
X98902380Y-99073809D02*
X97902380Y-99073809D01*
X98045238Y-99169047D01*
X98140476Y-99264285D01*
X98188095Y-99359523D01*
%TO.C,R3*%
X43972380Y-112726666D02*
X43496190Y-113060000D01*
X43972380Y-113298095D02*
X42972380Y-113298095D01*
X42972380Y-112917142D01*
X43020000Y-112821904D01*
X43067619Y-112774285D01*
X43162857Y-112726666D01*
X43305714Y-112726666D01*
X43400952Y-112774285D01*
X43448571Y-112821904D01*
X43496190Y-112917142D01*
X43496190Y-113298095D01*
X42972380Y-112393333D02*
X42972380Y-111774285D01*
X43353333Y-112107619D01*
X43353333Y-111964761D01*
X43400952Y-111869523D01*
X43448571Y-111821904D01*
X43543809Y-111774285D01*
X43781904Y-111774285D01*
X43877142Y-111821904D01*
X43924761Y-111869523D01*
X43972380Y-111964761D01*
X43972380Y-112250476D01*
X43924761Y-112345714D01*
X43877142Y-112393333D01*
%TO.C,R4*%
X31123333Y-115962380D02*
X30790000Y-115486190D01*
X30551904Y-115962380D02*
X30551904Y-114962380D01*
X30932857Y-114962380D01*
X31028095Y-115010000D01*
X31075714Y-115057619D01*
X31123333Y-115152857D01*
X31123333Y-115295714D01*
X31075714Y-115390952D01*
X31028095Y-115438571D01*
X30932857Y-115486190D01*
X30551904Y-115486190D01*
X31980476Y-115295714D02*
X31980476Y-115962380D01*
X31742380Y-114914761D02*
X31504285Y-115629047D01*
X32123333Y-115629047D01*
%TO.C,D7*%
X79877380Y-90288095D02*
X78877380Y-90288095D01*
X78877380Y-90050000D01*
X78925000Y-89907142D01*
X79020238Y-89811904D01*
X79115476Y-89764285D01*
X79305952Y-89716666D01*
X79448809Y-89716666D01*
X79639285Y-89764285D01*
X79734523Y-89811904D01*
X79829761Y-89907142D01*
X79877380Y-90050000D01*
X79877380Y-90288095D01*
X78877380Y-89383333D02*
X78877380Y-88716666D01*
X79877380Y-89145238D01*
%TO.C,Sw11*%
X88238095Y-108659761D02*
X88380952Y-108707380D01*
X88619047Y-108707380D01*
X88714285Y-108659761D01*
X88761904Y-108612142D01*
X88809523Y-108516904D01*
X88809523Y-108421666D01*
X88761904Y-108326428D01*
X88714285Y-108278809D01*
X88619047Y-108231190D01*
X88428571Y-108183571D01*
X88333333Y-108135952D01*
X88285714Y-108088333D01*
X88238095Y-107993095D01*
X88238095Y-107897857D01*
X88285714Y-107802619D01*
X88333333Y-107755000D01*
X88428571Y-107707380D01*
X88666666Y-107707380D01*
X88809523Y-107755000D01*
X89142857Y-108040714D02*
X89333333Y-108707380D01*
X89523809Y-108231190D01*
X89714285Y-108707380D01*
X89904761Y-108040714D01*
X90809523Y-108707380D02*
X90238095Y-108707380D01*
X90523809Y-108707380D02*
X90523809Y-107707380D01*
X90428571Y-107850238D01*
X90333333Y-107945476D01*
X90238095Y-107993095D01*
X91761904Y-108707380D02*
X91190476Y-108707380D01*
X91476190Y-108707380D02*
X91476190Y-107707380D01*
X91380952Y-107850238D01*
X91285714Y-107945476D01*
X91190476Y-107993095D01*
%TO.C,D3*%
X79852380Y-148013095D02*
X78852380Y-148013095D01*
X78852380Y-147775000D01*
X78900000Y-147632142D01*
X78995238Y-147536904D01*
X79090476Y-147489285D01*
X79280952Y-147441666D01*
X79423809Y-147441666D01*
X79614285Y-147489285D01*
X79709523Y-147536904D01*
X79804761Y-147632142D01*
X79852380Y-147775000D01*
X79852380Y-148013095D01*
X78852380Y-147108333D02*
X78852380Y-146489285D01*
X79233333Y-146822619D01*
X79233333Y-146679761D01*
X79280952Y-146584523D01*
X79328571Y-146536904D01*
X79423809Y-146489285D01*
X79661904Y-146489285D01*
X79757142Y-146536904D01*
X79804761Y-146584523D01*
X79852380Y-146679761D01*
X79852380Y-146965476D01*
X79804761Y-147060714D01*
X79757142Y-147108333D01*
%TO.C,Sw17*%
X126238095Y-127079761D02*
X126380952Y-127127380D01*
X126619047Y-127127380D01*
X126714285Y-127079761D01*
X126761904Y-127032142D01*
X126809523Y-126936904D01*
X126809523Y-126841666D01*
X126761904Y-126746428D01*
X126714285Y-126698809D01*
X126619047Y-126651190D01*
X126428571Y-126603571D01*
X126333333Y-126555952D01*
X126285714Y-126508333D01*
X126238095Y-126413095D01*
X126238095Y-126317857D01*
X126285714Y-126222619D01*
X126333333Y-126175000D01*
X126428571Y-126127380D01*
X126666666Y-126127380D01*
X126809523Y-126175000D01*
X127142857Y-126460714D02*
X127333333Y-127127380D01*
X127523809Y-126651190D01*
X127714285Y-127127380D01*
X127904761Y-126460714D01*
X128809523Y-127127380D02*
X128238095Y-127127380D01*
X128523809Y-127127380D02*
X128523809Y-126127380D01*
X128428571Y-126270238D01*
X128333333Y-126365476D01*
X128238095Y-126413095D01*
X129142857Y-126127380D02*
X129809523Y-126127380D01*
X129380952Y-127127380D01*
%TO.C,U1*%
X31008095Y-88182380D02*
X31008095Y-88991904D01*
X31055714Y-89087142D01*
X31103333Y-89134761D01*
X31198571Y-89182380D01*
X31389047Y-89182380D01*
X31484285Y-89134761D01*
X31531904Y-89087142D01*
X31579523Y-88991904D01*
X31579523Y-88182380D01*
X32579523Y-89182380D02*
X32008095Y-89182380D01*
X32293809Y-89182380D02*
X32293809Y-88182380D01*
X32198571Y-88325238D01*
X32103333Y-88420476D01*
X32008095Y-88468095D01*
%TO.C,D16*%
X137027380Y-98489285D02*
X136027380Y-98489285D01*
X136027380Y-98251190D01*
X136075000Y-98108333D01*
X136170238Y-98013095D01*
X136265476Y-97965476D01*
X136455952Y-97917857D01*
X136598809Y-97917857D01*
X136789285Y-97965476D01*
X136884523Y-98013095D01*
X136979761Y-98108333D01*
X137027380Y-98251190D01*
X137027380Y-98489285D01*
X137027380Y-96965476D02*
X137027380Y-97536904D01*
X137027380Y-97251190D02*
X136027380Y-97251190D01*
X136170238Y-97346428D01*
X136265476Y-97441666D01*
X136313095Y-97536904D01*
X136027380Y-96108333D02*
X136027380Y-96298809D01*
X136075000Y-96394047D01*
X136122619Y-96441666D01*
X136265476Y-96536904D01*
X136455952Y-96584523D01*
X136836904Y-96584523D01*
X136932142Y-96536904D01*
X136979761Y-96489285D01*
X137027380Y-96394047D01*
X137027380Y-96203571D01*
X136979761Y-96108333D01*
X136932142Y-96060714D01*
X136836904Y-96013095D01*
X136598809Y-96013095D01*
X136503571Y-96060714D01*
X136455952Y-96108333D01*
X136408333Y-96203571D01*
X136408333Y-96394047D01*
X136455952Y-96489285D01*
X136503571Y-96536904D01*
X136598809Y-96584523D01*
%TO.C,D4*%
X59002380Y-99538095D02*
X58002380Y-99538095D01*
X58002380Y-99300000D01*
X58050000Y-99157142D01*
X58145238Y-99061904D01*
X58240476Y-99014285D01*
X58430952Y-98966666D01*
X58573809Y-98966666D01*
X58764285Y-99014285D01*
X58859523Y-99061904D01*
X58954761Y-99157142D01*
X59002380Y-99300000D01*
X59002380Y-99538095D01*
X58335714Y-98109523D02*
X59002380Y-98109523D01*
X57954761Y-98347619D02*
X58669047Y-98585714D01*
X58669047Y-97966666D01*
%TO.C,Sw3*%
X69664285Y-157759761D02*
X69807142Y-157807380D01*
X70045238Y-157807380D01*
X70140476Y-157759761D01*
X70188095Y-157712142D01*
X70235714Y-157616904D01*
X70235714Y-157521666D01*
X70188095Y-157426428D01*
X70140476Y-157378809D01*
X70045238Y-157331190D01*
X69854761Y-157283571D01*
X69759523Y-157235952D01*
X69711904Y-157188333D01*
X69664285Y-157093095D01*
X69664285Y-156997857D01*
X69711904Y-156902619D01*
X69759523Y-156855000D01*
X69854761Y-156807380D01*
X70092857Y-156807380D01*
X70235714Y-156855000D01*
X70569047Y-157140714D02*
X70759523Y-157807380D01*
X70950000Y-157331190D01*
X71140476Y-157807380D01*
X71330952Y-157140714D01*
X71616666Y-156807380D02*
X72235714Y-156807380D01*
X71902380Y-157188333D01*
X72045238Y-157188333D01*
X72140476Y-157235952D01*
X72188095Y-157283571D01*
X72235714Y-157378809D01*
X72235714Y-157616904D01*
X72188095Y-157712142D01*
X72140476Y-157759761D01*
X72045238Y-157807380D01*
X71759523Y-157807380D01*
X71664285Y-157759761D01*
X71616666Y-157712142D01*
%TO.C,Sw13*%
X107288095Y-95609761D02*
X107430952Y-95657380D01*
X107669047Y-95657380D01*
X107764285Y-95609761D01*
X107811904Y-95562142D01*
X107859523Y-95466904D01*
X107859523Y-95371666D01*
X107811904Y-95276428D01*
X107764285Y-95228809D01*
X107669047Y-95181190D01*
X107478571Y-95133571D01*
X107383333Y-95085952D01*
X107335714Y-95038333D01*
X107288095Y-94943095D01*
X107288095Y-94847857D01*
X107335714Y-94752619D01*
X107383333Y-94705000D01*
X107478571Y-94657380D01*
X107716666Y-94657380D01*
X107859523Y-94705000D01*
X108192857Y-94990714D02*
X108383333Y-95657380D01*
X108573809Y-95181190D01*
X108764285Y-95657380D01*
X108954761Y-94990714D01*
X109859523Y-95657380D02*
X109288095Y-95657380D01*
X109573809Y-95657380D02*
X109573809Y-94657380D01*
X109478571Y-94800238D01*
X109383333Y-94895476D01*
X109288095Y-94943095D01*
X110192857Y-94657380D02*
X110811904Y-94657380D01*
X110478571Y-95038333D01*
X110621428Y-95038333D01*
X110716666Y-95085952D01*
X110764285Y-95133571D01*
X110811904Y-95228809D01*
X110811904Y-95466904D01*
X110764285Y-95562142D01*
X110716666Y-95609761D01*
X110621428Y-95657380D01*
X110335714Y-95657380D01*
X110240476Y-95609761D01*
X110192857Y-95562142D01*
%TO.C,D18*%
X136952380Y-139414285D02*
X135952380Y-139414285D01*
X135952380Y-139176190D01*
X136000000Y-139033333D01*
X136095238Y-138938095D01*
X136190476Y-138890476D01*
X136380952Y-138842857D01*
X136523809Y-138842857D01*
X136714285Y-138890476D01*
X136809523Y-138938095D01*
X136904761Y-139033333D01*
X136952380Y-139176190D01*
X136952380Y-139414285D01*
X136952380Y-137890476D02*
X136952380Y-138461904D01*
X136952380Y-138176190D02*
X135952380Y-138176190D01*
X136095238Y-138271428D01*
X136190476Y-138366666D01*
X136238095Y-138461904D01*
X136380952Y-137319047D02*
X136333333Y-137414285D01*
X136285714Y-137461904D01*
X136190476Y-137509523D01*
X136142857Y-137509523D01*
X136047619Y-137461904D01*
X136000000Y-137414285D01*
X135952380Y-137319047D01*
X135952380Y-137128571D01*
X136000000Y-137033333D01*
X136047619Y-136985714D01*
X136142857Y-136938095D01*
X136190476Y-136938095D01*
X136285714Y-136985714D01*
X136333333Y-137033333D01*
X136380952Y-137128571D01*
X136380952Y-137319047D01*
X136428571Y-137414285D01*
X136476190Y-137461904D01*
X136571428Y-137509523D01*
X136761904Y-137509523D01*
X136857142Y-137461904D01*
X136904761Y-137414285D01*
X136952380Y-137319047D01*
X136952380Y-137128571D01*
X136904761Y-137033333D01*
X136857142Y-136985714D01*
X136761904Y-136938095D01*
X136571428Y-136938095D01*
X136476190Y-136985714D01*
X136428571Y-137033333D01*
X136380952Y-137128571D01*
%TO.C,R7*%
X23533333Y-110952380D02*
X23200000Y-110476190D01*
X22961904Y-110952380D02*
X22961904Y-109952380D01*
X23342857Y-109952380D01*
X23438095Y-110000000D01*
X23485714Y-110047619D01*
X23533333Y-110142857D01*
X23533333Y-110285714D01*
X23485714Y-110380952D01*
X23438095Y-110428571D01*
X23342857Y-110476190D01*
X22961904Y-110476190D01*
X23866666Y-109952380D02*
X24533333Y-109952380D01*
X24104761Y-110952380D01*
%TO.C,Sw9*%
X69664285Y-135759761D02*
X69807142Y-135807380D01*
X70045238Y-135807380D01*
X70140476Y-135759761D01*
X70188095Y-135712142D01*
X70235714Y-135616904D01*
X70235714Y-135521666D01*
X70188095Y-135426428D01*
X70140476Y-135378809D01*
X70045238Y-135331190D01*
X69854761Y-135283571D01*
X69759523Y-135235952D01*
X69711904Y-135188333D01*
X69664285Y-135093095D01*
X69664285Y-134997857D01*
X69711904Y-134902619D01*
X69759523Y-134855000D01*
X69854761Y-134807380D01*
X70092857Y-134807380D01*
X70235714Y-134855000D01*
X70569047Y-135140714D02*
X70759523Y-135807380D01*
X70950000Y-135331190D01*
X71140476Y-135807380D01*
X71330952Y-135140714D01*
X71759523Y-135807380D02*
X71950000Y-135807380D01*
X72045238Y-135759761D01*
X72092857Y-135712142D01*
X72188095Y-135569285D01*
X72235714Y-135378809D01*
X72235714Y-134997857D01*
X72188095Y-134902619D01*
X72140476Y-134855000D01*
X72045238Y-134807380D01*
X71854761Y-134807380D01*
X71759523Y-134855000D01*
X71711904Y-134902619D01*
X71664285Y-134997857D01*
X71664285Y-135235952D01*
X71711904Y-135331190D01*
X71759523Y-135378809D01*
X71854761Y-135426428D01*
X72045238Y-135426428D01*
X72140476Y-135378809D01*
X72188095Y-135331190D01*
X72235714Y-135235952D01*
%TO.C,R6*%
X23483333Y-117752380D02*
X23150000Y-117276190D01*
X22911904Y-117752380D02*
X22911904Y-116752380D01*
X23292857Y-116752380D01*
X23388095Y-116800000D01*
X23435714Y-116847619D01*
X23483333Y-116942857D01*
X23483333Y-117085714D01*
X23435714Y-117180952D01*
X23388095Y-117228571D01*
X23292857Y-117276190D01*
X22911904Y-117276190D01*
X24340476Y-116752380D02*
X24150000Y-116752380D01*
X24054761Y-116800000D01*
X24007142Y-116847619D01*
X23911904Y-116990476D01*
X23864285Y-117180952D01*
X23864285Y-117561904D01*
X23911904Y-117657142D01*
X23959523Y-117704761D01*
X24054761Y-117752380D01*
X24245238Y-117752380D01*
X24340476Y-117704761D01*
X24388095Y-117657142D01*
X24435714Y-117561904D01*
X24435714Y-117323809D01*
X24388095Y-117228571D01*
X24340476Y-117180952D01*
X24245238Y-117133333D01*
X24054761Y-117133333D01*
X23959523Y-117180952D01*
X23911904Y-117228571D01*
X23864285Y-117323809D01*
%TO.C,D9*%
X79852380Y-128538095D02*
X78852380Y-128538095D01*
X78852380Y-128300000D01*
X78900000Y-128157142D01*
X78995238Y-128061904D01*
X79090476Y-128014285D01*
X79280952Y-127966666D01*
X79423809Y-127966666D01*
X79614285Y-128014285D01*
X79709523Y-128061904D01*
X79804761Y-128157142D01*
X79852380Y-128300000D01*
X79852380Y-128538095D01*
X79852380Y-127490476D02*
X79852380Y-127300000D01*
X79804761Y-127204761D01*
X79757142Y-127157142D01*
X79614285Y-127061904D01*
X79423809Y-127014285D01*
X79042857Y-127014285D01*
X78947619Y-127061904D01*
X78900000Y-127109523D01*
X78852380Y-127204761D01*
X78852380Y-127395238D01*
X78900000Y-127490476D01*
X78947619Y-127538095D01*
X79042857Y-127585714D01*
X79280952Y-127585714D01*
X79376190Y-127538095D01*
X79423809Y-127490476D01*
X79471428Y-127395238D01*
X79471428Y-127204761D01*
X79423809Y-127109523D01*
X79376190Y-127061904D01*
X79280952Y-127014285D01*
%TO.C,Sw4*%
X50614285Y-103609761D02*
X50757142Y-103657380D01*
X50995238Y-103657380D01*
X51090476Y-103609761D01*
X51138095Y-103562142D01*
X51185714Y-103466904D01*
X51185714Y-103371666D01*
X51138095Y-103276428D01*
X51090476Y-103228809D01*
X50995238Y-103181190D01*
X50804761Y-103133571D01*
X50709523Y-103085952D01*
X50661904Y-103038333D01*
X50614285Y-102943095D01*
X50614285Y-102847857D01*
X50661904Y-102752619D01*
X50709523Y-102705000D01*
X50804761Y-102657380D01*
X51042857Y-102657380D01*
X51185714Y-102705000D01*
X51519047Y-102990714D02*
X51709523Y-103657380D01*
X51900000Y-103181190D01*
X52090476Y-103657380D01*
X52280952Y-102990714D01*
X53090476Y-102990714D02*
X53090476Y-103657380D01*
X52852380Y-102609761D02*
X52614285Y-103324047D01*
X53233333Y-103324047D01*
%TO.C,D15*%
X118027380Y-126414285D02*
X117027380Y-126414285D01*
X117027380Y-126176190D01*
X117075000Y-126033333D01*
X117170238Y-125938095D01*
X117265476Y-125890476D01*
X117455952Y-125842857D01*
X117598809Y-125842857D01*
X117789285Y-125890476D01*
X117884523Y-125938095D01*
X117979761Y-126033333D01*
X118027380Y-126176190D01*
X118027380Y-126414285D01*
X118027380Y-124890476D02*
X118027380Y-125461904D01*
X118027380Y-125176190D02*
X117027380Y-125176190D01*
X117170238Y-125271428D01*
X117265476Y-125366666D01*
X117313095Y-125461904D01*
X117027380Y-123985714D02*
X117027380Y-124461904D01*
X117503571Y-124509523D01*
X117455952Y-124461904D01*
X117408333Y-124366666D01*
X117408333Y-124128571D01*
X117455952Y-124033333D01*
X117503571Y-123985714D01*
X117598809Y-123938095D01*
X117836904Y-123938095D01*
X117932142Y-123985714D01*
X117979761Y-124033333D01*
X118027380Y-124128571D01*
X118027380Y-124366666D01*
X117979761Y-124461904D01*
X117932142Y-124509523D01*
%TO.C,Sw6*%
X50614285Y-141709761D02*
X50757142Y-141757380D01*
X50995238Y-141757380D01*
X51090476Y-141709761D01*
X51138095Y-141662142D01*
X51185714Y-141566904D01*
X51185714Y-141471666D01*
X51138095Y-141376428D01*
X51090476Y-141328809D01*
X50995238Y-141281190D01*
X50804761Y-141233571D01*
X50709523Y-141185952D01*
X50661904Y-141138333D01*
X50614285Y-141043095D01*
X50614285Y-140947857D01*
X50661904Y-140852619D01*
X50709523Y-140805000D01*
X50804761Y-140757380D01*
X51042857Y-140757380D01*
X51185714Y-140805000D01*
X51519047Y-141090714D02*
X51709523Y-141757380D01*
X51900000Y-141281190D01*
X52090476Y-141757380D01*
X52280952Y-141090714D01*
X53090476Y-140757380D02*
X52900000Y-140757380D01*
X52804761Y-140805000D01*
X52757142Y-140852619D01*
X52661904Y-140995476D01*
X52614285Y-141185952D01*
X52614285Y-141566904D01*
X52661904Y-141662142D01*
X52709523Y-141709761D01*
X52804761Y-141757380D01*
X52995238Y-141757380D01*
X53090476Y-141709761D01*
X53138095Y-141662142D01*
X53185714Y-141566904D01*
X53185714Y-141328809D01*
X53138095Y-141233571D01*
X53090476Y-141185952D01*
X52995238Y-141138333D01*
X52804761Y-141138333D01*
X52709523Y-141185952D01*
X52661904Y-141233571D01*
X52614285Y-141328809D01*
%TO.C,Sw18*%
X126338095Y-146759761D02*
X126480952Y-146807380D01*
X126719047Y-146807380D01*
X126814285Y-146759761D01*
X126861904Y-146712142D01*
X126909523Y-146616904D01*
X126909523Y-146521666D01*
X126861904Y-146426428D01*
X126814285Y-146378809D01*
X126719047Y-146331190D01*
X126528571Y-146283571D01*
X126433333Y-146235952D01*
X126385714Y-146188333D01*
X126338095Y-146093095D01*
X126338095Y-145997857D01*
X126385714Y-145902619D01*
X126433333Y-145855000D01*
X126528571Y-145807380D01*
X126766666Y-145807380D01*
X126909523Y-145855000D01*
X127242857Y-146140714D02*
X127433333Y-146807380D01*
X127623809Y-146331190D01*
X127814285Y-146807380D01*
X128004761Y-146140714D01*
X128909523Y-146807380D02*
X128338095Y-146807380D01*
X128623809Y-146807380D02*
X128623809Y-145807380D01*
X128528571Y-145950238D01*
X128433333Y-146045476D01*
X128338095Y-146093095D01*
X129480952Y-146235952D02*
X129385714Y-146188333D01*
X129338095Y-146140714D01*
X129290476Y-146045476D01*
X129290476Y-145997857D01*
X129338095Y-145902619D01*
X129385714Y-145855000D01*
X129480952Y-145807380D01*
X129671428Y-145807380D01*
X129766666Y-145855000D01*
X129814285Y-145902619D01*
X129861904Y-145997857D01*
X129861904Y-146045476D01*
X129814285Y-146140714D01*
X129766666Y-146188333D01*
X129671428Y-146235952D01*
X129480952Y-146235952D01*
X129385714Y-146283571D01*
X129338095Y-146331190D01*
X129290476Y-146426428D01*
X129290476Y-146616904D01*
X129338095Y-146712142D01*
X129385714Y-146759761D01*
X129480952Y-146807380D01*
X129671428Y-146807380D01*
X129766666Y-146759761D01*
X129814285Y-146712142D01*
X129861904Y-146616904D01*
X129861904Y-146426428D01*
X129814285Y-146331190D01*
X129766666Y-146283571D01*
X129671428Y-146235952D01*
%TO.C,Sw14*%
X107288095Y-114054761D02*
X107430952Y-114102380D01*
X107669047Y-114102380D01*
X107764285Y-114054761D01*
X107811904Y-114007142D01*
X107859523Y-113911904D01*
X107859523Y-113816666D01*
X107811904Y-113721428D01*
X107764285Y-113673809D01*
X107669047Y-113626190D01*
X107478571Y-113578571D01*
X107383333Y-113530952D01*
X107335714Y-113483333D01*
X107288095Y-113388095D01*
X107288095Y-113292857D01*
X107335714Y-113197619D01*
X107383333Y-113150000D01*
X107478571Y-113102380D01*
X107716666Y-113102380D01*
X107859523Y-113150000D01*
X108192857Y-113435714D02*
X108383333Y-114102380D01*
X108573809Y-113626190D01*
X108764285Y-114102380D01*
X108954761Y-113435714D01*
X109859523Y-114102380D02*
X109288095Y-114102380D01*
X109573809Y-114102380D02*
X109573809Y-113102380D01*
X109478571Y-113245238D01*
X109383333Y-113340476D01*
X109288095Y-113388095D01*
X110716666Y-113435714D02*
X110716666Y-114102380D01*
X110478571Y-113054761D02*
X110240476Y-113769047D01*
X110859523Y-113769047D01*
%TO.C,R2*%
X43552380Y-121191666D02*
X43076190Y-121525000D01*
X43552380Y-121763095D02*
X42552380Y-121763095D01*
X42552380Y-121382142D01*
X42600000Y-121286904D01*
X42647619Y-121239285D01*
X42742857Y-121191666D01*
X42885714Y-121191666D01*
X42980952Y-121239285D01*
X43028571Y-121286904D01*
X43076190Y-121382142D01*
X43076190Y-121763095D01*
X42647619Y-120810714D02*
X42600000Y-120763095D01*
X42552380Y-120667857D01*
X42552380Y-120429761D01*
X42600000Y-120334523D01*
X42647619Y-120286904D01*
X42742857Y-120239285D01*
X42838095Y-120239285D01*
X42980952Y-120286904D01*
X43552380Y-120858333D01*
X43552380Y-120239285D01*
%TO.C,Sw1*%
X26850000Y-162100000D02*
X25850000Y-162100000D01*
X25850000Y-148100000D02*
X26850000Y-148100000D01*
X39850000Y-162100000D02*
X38850000Y-162100000D01*
X39850000Y-148100000D02*
X39850000Y-149100000D01*
X39850000Y-161100000D02*
X39850000Y-162100000D01*
X25850000Y-149100000D02*
X25850000Y-148100000D01*
X25850000Y-162100000D02*
X25850000Y-161100000D01*
X38850000Y-148100000D02*
X39850000Y-148100000D01*
D12*
X42375000Y-164625000D02*
X23325000Y-164625000D01*
X23325000Y-164625000D02*
X23325000Y-145575000D01*
X23325000Y-145575000D02*
X42375000Y-145575000D01*
X42375000Y-145575000D02*
X42375000Y-164625000D01*
D10*
%TO.C,Sw10*%
X84000000Y-87950000D02*
X83000000Y-87950000D01*
X83000000Y-74950000D02*
X83000000Y-73950000D01*
X96000000Y-73950000D02*
X97000000Y-73950000D01*
X97000000Y-86950000D02*
X97000000Y-87950000D01*
X83000000Y-87950000D02*
X83000000Y-86950000D01*
X97000000Y-87950000D02*
X96000000Y-87950000D01*
X97000000Y-73950000D02*
X97000000Y-74950000D01*
X83000000Y-73950000D02*
X84000000Y-73950000D01*
D12*
X99525000Y-90475000D02*
X80475000Y-90475000D01*
X80475000Y-90475000D02*
X80475000Y-71425000D01*
X80475000Y-71425000D02*
X99525000Y-71425000D01*
X99525000Y-71425000D02*
X99525000Y-90475000D01*
%TO.C,D10*%
X97550000Y-86700000D02*
X99250000Y-86700000D01*
X97550000Y-86700000D02*
X97550000Y-83550000D01*
X99250000Y-86700000D02*
X99250000Y-83550000D01*
%TO.C,D17*%
X135650000Y-124700000D02*
X135650000Y-121550000D01*
X135650000Y-124700000D02*
X137350000Y-124700000D01*
X137350000Y-124700000D02*
X137350000Y-121550000D01*
D10*
%TO.C,Sw2*%
X58900000Y-158100000D02*
X58900000Y-159100000D01*
X45900000Y-159100000D02*
X44900000Y-159100000D01*
X44900000Y-145100000D02*
X45900000Y-145100000D01*
X44900000Y-146100000D02*
X44900000Y-145100000D01*
X58900000Y-159100000D02*
X57900000Y-159100000D01*
X44900000Y-159100000D02*
X44900000Y-158100000D01*
X58900000Y-145100000D02*
X58900000Y-146100000D01*
X57900000Y-145100000D02*
X58900000Y-145100000D01*
D12*
X61425000Y-161625000D02*
X42375000Y-161625000D01*
X42375000Y-161625000D02*
X42375000Y-142575000D01*
X42375000Y-142575000D02*
X61425000Y-142575000D01*
X61425000Y-142575000D02*
X61425000Y-161625000D01*
%TO.C,D1*%
X40550000Y-154450000D02*
X40550000Y-157600000D01*
X42250000Y-154450000D02*
X42250000Y-157600000D01*
X42250000Y-154450000D02*
X40550000Y-154450000D01*
%TO.C,D5*%
X61150000Y-119700000D02*
X61150000Y-116550000D01*
X59450000Y-119700000D02*
X59450000Y-116550000D01*
X59450000Y-119700000D02*
X61150000Y-119700000D01*
%TO.C,R1*%
X42605000Y-143972936D02*
X42605000Y-144427064D01*
X41135000Y-143972936D02*
X41135000Y-144427064D01*
%TO.C,D2*%
X60750000Y-151500000D02*
X60750000Y-154650000D01*
X59050000Y-151500000D02*
X59050000Y-154650000D01*
X60750000Y-151500000D02*
X59050000Y-151500000D01*
D10*
%TO.C,Sw8*%
X76950000Y-101000000D02*
X77950000Y-101000000D01*
X63950000Y-102000000D02*
X63950000Y-101000000D01*
X77950000Y-101000000D02*
X77950000Y-102000000D01*
X63950000Y-115000000D02*
X63950000Y-114000000D01*
X77950000Y-115000000D02*
X76950000Y-115000000D01*
X64950000Y-115000000D02*
X63950000Y-115000000D01*
X77950000Y-114000000D02*
X77950000Y-115000000D01*
X63950000Y-101000000D02*
X64950000Y-101000000D01*
D12*
X80475000Y-117525000D02*
X61425000Y-117525000D01*
X61425000Y-117525000D02*
X61425000Y-98475000D01*
X61425000Y-98475000D02*
X80475000Y-98475000D01*
X80475000Y-98475000D02*
X80475000Y-117525000D01*
%TO.C,D12*%
X99250000Y-124750000D02*
X99250000Y-121600000D01*
X97550000Y-124750000D02*
X97550000Y-121600000D01*
X97550000Y-124750000D02*
X99250000Y-124750000D01*
D10*
%TO.C,Sw7*%
X63950000Y-95950000D02*
X63950000Y-94950000D01*
X77950000Y-81950000D02*
X77950000Y-82950000D01*
X63950000Y-82950000D02*
X63950000Y-81950000D01*
X76950000Y-81950000D02*
X77950000Y-81950000D01*
X77950000Y-94950000D02*
X77950000Y-95950000D01*
X77950000Y-95950000D02*
X76950000Y-95950000D01*
X64950000Y-95950000D02*
X63950000Y-95950000D01*
X63950000Y-81950000D02*
X64950000Y-81950000D01*
D12*
X80475000Y-98475000D02*
X61425000Y-98475000D01*
X61425000Y-98475000D02*
X61425000Y-79425000D01*
X61425000Y-79425000D02*
X80475000Y-79425000D01*
X80475000Y-79425000D02*
X80475000Y-98475000D01*
%TO.C,D14*%
X118250000Y-111700000D02*
X118250000Y-108550000D01*
X116550000Y-111700000D02*
X118250000Y-111700000D01*
X116550000Y-111700000D02*
X116550000Y-108550000D01*
%TO.C,D8*%
X78450000Y-113700000D02*
X80150000Y-113700000D01*
X80150000Y-113700000D02*
X80150000Y-110550000D01*
X78450000Y-113700000D02*
X78450000Y-110550000D01*
%TO.C,D13*%
X118350000Y-86350000D02*
X116650000Y-86350000D01*
X118350000Y-86350000D02*
X118350000Y-89500000D01*
X116650000Y-86350000D02*
X116650000Y-89500000D01*
D10*
%TO.C,Sw15*%
X115050000Y-118050000D02*
X116050000Y-118050000D01*
X116050000Y-132050000D02*
X115050000Y-132050000D01*
X102050000Y-118050000D02*
X103050000Y-118050000D01*
X103050000Y-132050000D02*
X102050000Y-132050000D01*
X116050000Y-131050000D02*
X116050000Y-132050000D01*
X116050000Y-118050000D02*
X116050000Y-119050000D01*
X102050000Y-119050000D02*
X102050000Y-118050000D01*
X102050000Y-132050000D02*
X102050000Y-131050000D01*
D12*
X118575000Y-134575000D02*
X99525000Y-134575000D01*
X99525000Y-134575000D02*
X99525000Y-115525000D01*
X99525000Y-115525000D02*
X118575000Y-115525000D01*
X118575000Y-115525000D02*
X118575000Y-134575000D01*
%TO.C,J2*%
X31800000Y-126100000D02*
X21275000Y-126100000D01*
X21275000Y-119900000D02*
X21275000Y-120500000D01*
X30700000Y-119900000D02*
X30700000Y-118500000D01*
X25300000Y-119900000D02*
X26650000Y-119900000D01*
X19275000Y-120500000D02*
X19275000Y-125500000D01*
X21275000Y-125500000D02*
X19275000Y-125500000D01*
X21275000Y-119900000D02*
X23650000Y-119900000D01*
X32250000Y-119900000D02*
X32250000Y-118500000D01*
X28300000Y-119900000D02*
X30700000Y-119900000D01*
X33375000Y-126100000D02*
X33375000Y-119900000D01*
X32250000Y-119900000D02*
X33375000Y-119900000D01*
X21275000Y-120500000D02*
X19275000Y-120500000D01*
X21275000Y-125500000D02*
X21275000Y-126100000D01*
D10*
%TO.C,Sw5*%
X44900000Y-121000000D02*
X44900000Y-120000000D01*
X57900000Y-107000000D02*
X58900000Y-107000000D01*
X58900000Y-107000000D02*
X58900000Y-108000000D01*
X44900000Y-107000000D02*
X45900000Y-107000000D01*
X45900000Y-121000000D02*
X44900000Y-121000000D01*
X58900000Y-120000000D02*
X58900000Y-121000000D01*
X58900000Y-121000000D02*
X57900000Y-121000000D01*
X44900000Y-108000000D02*
X44900000Y-107000000D01*
D12*
X61425000Y-123525000D02*
X42375000Y-123525000D01*
X42375000Y-123525000D02*
X42375000Y-104475000D01*
X42375000Y-104475000D02*
X61425000Y-104475000D01*
X61425000Y-104475000D02*
X61425000Y-123525000D01*
D10*
%TO.C,Sw16*%
X121100000Y-94000000D02*
X121100000Y-93000000D01*
X122100000Y-107000000D02*
X121100000Y-107000000D01*
X121100000Y-93000000D02*
X122100000Y-93000000D01*
X135100000Y-93000000D02*
X135100000Y-94000000D01*
X135100000Y-107000000D02*
X134100000Y-107000000D01*
X135100000Y-106000000D02*
X135100000Y-107000000D01*
X134100000Y-93000000D02*
X135100000Y-93000000D01*
X121100000Y-107000000D02*
X121100000Y-106000000D01*
D12*
X137625000Y-109525000D02*
X118575000Y-109525000D01*
X118575000Y-109525000D02*
X118575000Y-90475000D01*
X118575000Y-90475000D02*
X137625000Y-90475000D01*
X137625000Y-90475000D02*
X137625000Y-109525000D01*
%TO.C,R5*%
X28427064Y-114385000D02*
X27972936Y-114385000D01*
X28427064Y-112915000D02*
X27972936Y-112915000D01*
D10*
%TO.C,Sw12*%
X83000000Y-113050000D02*
X83000000Y-112050000D01*
X97000000Y-126050000D02*
X96000000Y-126050000D01*
X97000000Y-112050000D02*
X97000000Y-113050000D01*
X84000000Y-126050000D02*
X83000000Y-126050000D01*
X97000000Y-125050000D02*
X97000000Y-126050000D01*
X83000000Y-126050000D02*
X83000000Y-125050000D01*
X96000000Y-112050000D02*
X97000000Y-112050000D01*
X83000000Y-112050000D02*
X84000000Y-112050000D01*
D12*
X99525000Y-128575000D02*
X80475000Y-128575000D01*
X80475000Y-128575000D02*
X80475000Y-109525000D01*
X80475000Y-109525000D02*
X99525000Y-109525000D01*
X99525000Y-109525000D02*
X99525000Y-128575000D01*
%TO.C,D6*%
X61850000Y-138900000D02*
X61850000Y-135750000D01*
X60150000Y-138900000D02*
X61850000Y-138900000D01*
X60150000Y-138900000D02*
X60150000Y-135750000D01*
%TO.C,D11*%
X97550000Y-105700000D02*
X97550000Y-102550000D01*
X99250000Y-105700000D02*
X99250000Y-102550000D01*
X97550000Y-105700000D02*
X99250000Y-105700000D01*
%TO.C,R3*%
X42605000Y-112332936D02*
X42605000Y-112787064D01*
X41135000Y-112332936D02*
X41135000Y-112787064D01*
%TO.C,R4*%
X28417064Y-114835000D02*
X27962936Y-114835000D01*
X28417064Y-116305000D02*
X27962936Y-116305000D01*
%TO.C,D7*%
X80250000Y-94650000D02*
X80250000Y-91500000D01*
X78550000Y-94650000D02*
X78550000Y-91500000D01*
X78550000Y-94650000D02*
X80250000Y-94650000D01*
D10*
%TO.C,Sw11*%
X97000000Y-93000000D02*
X97000000Y-94000000D01*
X83000000Y-107000000D02*
X83000000Y-106000000D01*
X84000000Y-107000000D02*
X83000000Y-107000000D01*
X83000000Y-94000000D02*
X83000000Y-93000000D01*
X97000000Y-107000000D02*
X96000000Y-107000000D01*
X97000000Y-106000000D02*
X97000000Y-107000000D01*
X83000000Y-93000000D02*
X84000000Y-93000000D01*
X96000000Y-93000000D02*
X97000000Y-93000000D01*
D12*
X99525000Y-109525000D02*
X80475000Y-109525000D01*
X80475000Y-109525000D02*
X80475000Y-90475000D01*
X80475000Y-90475000D02*
X99525000Y-90475000D01*
X99525000Y-90475000D02*
X99525000Y-109525000D01*
%TO.C,D3*%
X78550000Y-148450000D02*
X78550000Y-151600000D01*
X80250000Y-148450000D02*
X80250000Y-151600000D01*
X80250000Y-148450000D02*
X78550000Y-148450000D01*
D10*
%TO.C,Sw17*%
X134100000Y-112050000D02*
X135100000Y-112050000D01*
X135100000Y-126050000D02*
X134100000Y-126050000D01*
X122100000Y-126050000D02*
X121100000Y-126050000D01*
X121100000Y-126050000D02*
X121100000Y-125050000D01*
X135100000Y-125050000D02*
X135100000Y-126050000D01*
X135100000Y-112050000D02*
X135100000Y-113050000D01*
X121100000Y-113050000D02*
X121100000Y-112050000D01*
X121100000Y-112050000D02*
X122100000Y-112050000D01*
D12*
X137625000Y-128575000D02*
X118575000Y-128575000D01*
X118575000Y-128575000D02*
X118575000Y-109525000D01*
X118575000Y-109525000D02*
X137625000Y-109525000D01*
X137625000Y-109525000D02*
X137625000Y-128575000D01*
%TO.C,U1*%
X22880000Y-89230000D02*
X40660000Y-89230000D01*
X40660000Y-89230000D02*
X40660000Y-109550000D01*
X40660000Y-109550000D02*
X22880000Y-109550000D01*
X22880000Y-109550000D02*
X22880000Y-89230000D01*
X27325000Y-87960000D02*
X36215000Y-87960000D01*
X36215000Y-87960000D02*
X36215000Y-93040000D01*
X36215000Y-93040000D02*
X27325000Y-93040000D01*
X27325000Y-93040000D02*
X27325000Y-87960000D01*
%TO.C,D16*%
X137450000Y-99250000D02*
X135750000Y-99250000D01*
X135750000Y-99250000D02*
X135750000Y-102400000D01*
X137450000Y-99250000D02*
X137450000Y-102400000D01*
%TO.C,D4*%
X59550000Y-100700000D02*
X61250000Y-100700000D01*
X61250000Y-100700000D02*
X61250000Y-97550000D01*
X59550000Y-100700000D02*
X59550000Y-97550000D01*
D10*
%TO.C,Sw3*%
X63950000Y-143100000D02*
X63950000Y-142100000D01*
X77950000Y-156100000D02*
X76950000Y-156100000D01*
X77950000Y-142100000D02*
X77950000Y-143100000D01*
X64950000Y-156100000D02*
X63950000Y-156100000D01*
X76950000Y-142100000D02*
X77950000Y-142100000D01*
X63950000Y-142100000D02*
X64950000Y-142100000D01*
X77950000Y-155100000D02*
X77950000Y-156100000D01*
X63950000Y-156100000D02*
X63950000Y-155100000D01*
D12*
X80475000Y-158625000D02*
X61425000Y-158625000D01*
X61425000Y-158625000D02*
X61425000Y-139575000D01*
X61425000Y-139575000D02*
X80475000Y-139575000D01*
X80475000Y-139575000D02*
X80475000Y-158625000D01*
D10*
%TO.C,Sw13*%
X116050000Y-93950000D02*
X115050000Y-93950000D01*
X102050000Y-93950000D02*
X102050000Y-92950000D01*
X115050000Y-79950000D02*
X116050000Y-79950000D01*
X103050000Y-93950000D02*
X102050000Y-93950000D01*
X102050000Y-79950000D02*
X103050000Y-79950000D01*
X116050000Y-79950000D02*
X116050000Y-80950000D01*
X102050000Y-80950000D02*
X102050000Y-79950000D01*
X116050000Y-92950000D02*
X116050000Y-93950000D01*
D12*
X118575000Y-96475000D02*
X99525000Y-96475000D01*
X99525000Y-96475000D02*
X99525000Y-77425000D01*
X99525000Y-77425000D02*
X118575000Y-77425000D01*
X118575000Y-77425000D02*
X118575000Y-96475000D01*
%TO.C,D18*%
X135650000Y-143800000D02*
X137350000Y-143800000D01*
X137350000Y-143800000D02*
X137350000Y-140650000D01*
X135650000Y-143800000D02*
X135650000Y-140650000D01*
%TO.C,R7*%
X23927064Y-114335000D02*
X23472936Y-114335000D01*
X23927064Y-112865000D02*
X23472936Y-112865000D01*
D10*
%TO.C,Sw9*%
X77950000Y-120050000D02*
X77950000Y-121050000D01*
X63950000Y-134050000D02*
X63950000Y-133050000D01*
X76950000Y-120050000D02*
X77950000Y-120050000D01*
X77950000Y-133050000D02*
X77950000Y-134050000D01*
X77950000Y-134050000D02*
X76950000Y-134050000D01*
X63950000Y-120050000D02*
X64950000Y-120050000D01*
X63950000Y-121050000D02*
X63950000Y-120050000D01*
X64950000Y-134050000D02*
X63950000Y-134050000D01*
D12*
X80475000Y-136575000D02*
X61425000Y-136575000D01*
X61425000Y-136575000D02*
X61425000Y-117525000D01*
X61425000Y-117525000D02*
X80475000Y-117525000D01*
X80475000Y-117525000D02*
X80475000Y-136575000D01*
%TO.C,R6*%
X23927064Y-114815000D02*
X23472936Y-114815000D01*
X23927064Y-116285000D02*
X23472936Y-116285000D01*
%TO.C,D9*%
X80250000Y-132800000D02*
X80250000Y-129650000D01*
X78550000Y-132800000D02*
X78550000Y-129650000D01*
X78550000Y-132800000D02*
X80250000Y-132800000D01*
D10*
%TO.C,Sw4*%
X58900000Y-100950000D02*
X58900000Y-101950000D01*
X58900000Y-87950000D02*
X58900000Y-88950000D01*
X44900000Y-87950000D02*
X45900000Y-87950000D01*
X44900000Y-88950000D02*
X44900000Y-87950000D01*
X58900000Y-101950000D02*
X57900000Y-101950000D01*
X45900000Y-101950000D02*
X44900000Y-101950000D01*
X57900000Y-87950000D02*
X58900000Y-87950000D01*
X44900000Y-101950000D02*
X44900000Y-100950000D01*
D12*
X61425000Y-104475000D02*
X42375000Y-104475000D01*
X42375000Y-104475000D02*
X42375000Y-85425000D01*
X42375000Y-85425000D02*
X61425000Y-85425000D01*
X61425000Y-85425000D02*
X61425000Y-104475000D01*
%TO.C,D15*%
X118450000Y-130700000D02*
X118450000Y-127550000D01*
X116750000Y-130700000D02*
X118450000Y-130700000D01*
X116750000Y-130700000D02*
X116750000Y-127550000D01*
D10*
%TO.C,Sw6*%
X58900000Y-126050000D02*
X58900000Y-127050000D01*
X58900000Y-140050000D02*
X57900000Y-140050000D01*
X44900000Y-126050000D02*
X45900000Y-126050000D01*
X44900000Y-140050000D02*
X44900000Y-139050000D01*
X58900000Y-139050000D02*
X58900000Y-140050000D01*
X45900000Y-140050000D02*
X44900000Y-140050000D01*
X57900000Y-126050000D02*
X58900000Y-126050000D01*
X44900000Y-127050000D02*
X44900000Y-126050000D01*
D12*
X61425000Y-142575000D02*
X42375000Y-142575000D01*
X42375000Y-142575000D02*
X42375000Y-123525000D01*
X42375000Y-123525000D02*
X61425000Y-123525000D01*
X61425000Y-123525000D02*
X61425000Y-142575000D01*
D10*
%TO.C,Sw18*%
X122100000Y-145100000D02*
X121100000Y-145100000D01*
X135100000Y-144100000D02*
X135100000Y-145100000D01*
X121100000Y-145100000D02*
X121100000Y-144100000D01*
X134100000Y-131100000D02*
X135100000Y-131100000D01*
X121100000Y-132100000D02*
X121100000Y-131100000D01*
X135100000Y-131100000D02*
X135100000Y-132100000D01*
X121100000Y-131100000D02*
X122100000Y-131100000D01*
X135100000Y-145100000D02*
X134100000Y-145100000D01*
D12*
X137625000Y-147625000D02*
X118575000Y-147625000D01*
X118575000Y-147625000D02*
X118575000Y-128575000D01*
X118575000Y-128575000D02*
X137625000Y-128575000D01*
X137625000Y-128575000D02*
X137625000Y-147625000D01*
D10*
%TO.C,Sw14*%
X103050000Y-113000000D02*
X102050000Y-113000000D01*
X116050000Y-113000000D02*
X115050000Y-113000000D01*
X102050000Y-100000000D02*
X102050000Y-99000000D01*
X115050000Y-99000000D02*
X116050000Y-99000000D01*
X116050000Y-99000000D02*
X116050000Y-100000000D01*
X102050000Y-113000000D02*
X102050000Y-112000000D01*
X102050000Y-99000000D02*
X103050000Y-99000000D01*
X116050000Y-112000000D02*
X116050000Y-113000000D01*
D12*
X118575000Y-115525000D02*
X99525000Y-115525000D01*
X99525000Y-115525000D02*
X99525000Y-96475000D01*
X99525000Y-96475000D02*
X118575000Y-96475000D01*
X118575000Y-96475000D02*
X118575000Y-115525000D01*
%TO.C,R2*%
X40715000Y-120797936D02*
X40715000Y-121252064D01*
X42185000Y-120797936D02*
X42185000Y-121252064D01*
%TD*%
M02*
