%TF.GenerationSoftware,KiCad,Pcbnew,(6.0.4)*%
%TF.CreationDate,2022-04-22T20:25:04+08:00*%
%TF.ProjectId,Slice36,536c6963-6533-4362-9e6b-696361645f70,rev?*%
%TF.SameCoordinates,Original*%
%TF.FileFunction,Paste,Top*%
%TF.FilePolarity,Positive*%
%FSLAX46Y46*%
G04 Gerber Fmt 4.6, Leading zero omitted, Abs format (unit mm)*
G04 Created by KiCad (PCBNEW (6.0.4)) date 2022-04-22 20:25:04*
%MOMM*%
%LPD*%
G01*
G04 APERTURE LIST*
G04 Aperture macros list*
%AMRoundRect*
0 Rectangle with rounded corners*
0 $1 Rounding radius*
0 $2 $3 $4 $5 $6 $7 $8 $9 X,Y pos of 4 corners*
0 Add a 4 corners polygon primitive as box body*
4,1,4,$2,$3,$4,$5,$6,$7,$8,$9,$2,$3,0*
0 Add four circle primitives for the rounded corners*
1,1,$1+$1,$2,$3*
1,1,$1+$1,$4,$5*
1,1,$1+$1,$6,$7*
1,1,$1+$1,$8,$9*
0 Add four rect primitives between the rounded corners*
20,1,$1+$1,$2,$3,$4,$5,0*
20,1,$1+$1,$4,$5,$6,$7,0*
20,1,$1+$1,$6,$7,$8,$9,0*
20,1,$1+$1,$8,$9,$2,$3,0*%
G04 Aperture macros list end*
%ADD10R,1.000000X1.000000*%
%ADD11RoundRect,0.250000X-0.450000X0.350000X-0.450000X-0.350000X0.450000X-0.350000X0.450000X0.350000X0*%
%ADD12R,1.200000X2.500000*%
%ADD13RoundRect,0.250000X0.350000X0.450000X-0.350000X0.450000X-0.350000X-0.450000X0.350000X-0.450000X0*%
G04 APERTURE END LIST*
D10*
%TO.C,D10*%
X98400000Y-86050000D03*
X98400000Y-83550000D03*
%TD*%
%TO.C,D17*%
X136500000Y-124050000D03*
X136500000Y-121550000D03*
%TD*%
%TO.C,D1*%
X41400000Y-155100000D03*
X41400000Y-157600000D03*
%TD*%
%TO.C,D5*%
X60300000Y-119050000D03*
X60300000Y-116550000D03*
%TD*%
D11*
%TO.C,R1*%
X41870000Y-143200000D03*
X41870000Y-145200000D03*
%TD*%
D10*
%TO.C,D2*%
X59900000Y-152150000D03*
X59900000Y-154650000D03*
%TD*%
%TO.C,D12*%
X98400000Y-124100000D03*
X98400000Y-121600000D03*
%TD*%
%TO.C,D14*%
X117400000Y-111050000D03*
X117400000Y-108550000D03*
%TD*%
%TO.C,D8*%
X79300000Y-113050000D03*
X79300000Y-110550000D03*
%TD*%
%TO.C,D13*%
X117500000Y-87000000D03*
X117500000Y-89500000D03*
%TD*%
D12*
%TO.C,J2*%
X27475000Y-119750000D03*
X24475000Y-119750000D03*
X32575000Y-126250000D03*
X31475000Y-119750000D03*
%TD*%
D13*
%TO.C,R5*%
X29200000Y-113650000D03*
X27200000Y-113650000D03*
%TD*%
D10*
%TO.C,D6*%
X61000000Y-138250000D03*
X61000000Y-135750000D03*
%TD*%
%TO.C,D11*%
X98400000Y-105050000D03*
X98400000Y-102550000D03*
%TD*%
D11*
%TO.C,R3*%
X41870000Y-111560000D03*
X41870000Y-113560000D03*
%TD*%
D13*
%TO.C,R4*%
X29190000Y-115570000D03*
X27190000Y-115570000D03*
%TD*%
D10*
%TO.C,D7*%
X79400000Y-94000000D03*
X79400000Y-91500000D03*
%TD*%
%TO.C,D3*%
X79400000Y-149100000D03*
X79400000Y-151600000D03*
%TD*%
%TO.C,D16*%
X136600000Y-99900000D03*
X136600000Y-102400000D03*
%TD*%
%TO.C,D4*%
X60400000Y-100050000D03*
X60400000Y-97550000D03*
%TD*%
%TO.C,D18*%
X136500000Y-143150000D03*
X136500000Y-140650000D03*
%TD*%
D13*
%TO.C,R7*%
X24700000Y-113600000D03*
X22700000Y-113600000D03*
%TD*%
%TO.C,R6*%
X24700000Y-115550000D03*
X22700000Y-115550000D03*
%TD*%
D10*
%TO.C,D9*%
X79400000Y-132150000D03*
X79400000Y-129650000D03*
%TD*%
%TO.C,D15*%
X117600000Y-130050000D03*
X117600000Y-127550000D03*
%TD*%
D11*
%TO.C,R2*%
X41450000Y-120025000D03*
X41450000Y-122025000D03*
%TD*%
M02*
