%TF.GenerationSoftware,KiCad,Pcbnew,(6.0.4)*%
%TF.CreationDate,2022-04-22T20:25:04+08:00*%
%TF.ProjectId,Slice36,536c6963-6533-4362-9e6b-696361645f70,rev?*%
%TF.SameCoordinates,Original*%
%TF.FileFunction,Soldermask,Top*%
%TF.FilePolarity,Negative*%
%FSLAX46Y46*%
G04 Gerber Fmt 4.6, Leading zero omitted, Abs format (unit mm)*
G04 Created by KiCad (PCBNEW (6.0.4)) date 2022-04-22 20:25:04*
%MOMM*%
%LPD*%
G01*
G04 APERTURE LIST*
G04 Aperture macros list*
%AMRoundRect*
0 Rectangle with rounded corners*
0 $1 Rounding radius*
0 $2 $3 $4 $5 $6 $7 $8 $9 X,Y pos of 4 corners*
0 Add a 4 corners polygon primitive as box body*
4,1,4,$2,$3,$4,$5,$6,$7,$8,$9,$2,$3,0*
0 Add four circle primitives for the rounded corners*
1,1,$1+$1,$2,$3*
1,1,$1+$1,$4,$5*
1,1,$1+$1,$6,$7*
1,1,$1+$1,$8,$9*
0 Add four rect primitives between the rounded corners*
20,1,$1+$1,$2,$3,$4,$5,0*
20,1,$1+$1,$4,$5,$6,$7,0*
20,1,$1+$1,$6,$7,$8,$9,0*
20,1,$1+$1,$8,$9,$2,$3,0*%
G04 Aperture macros list end*
%ADD10C,1.701800*%
%ADD11C,3.987800*%
%ADD12C,2.286000*%
%ADD13R,1.000000X1.000000*%
%ADD14C,3.200000*%
%ADD15RoundRect,0.250000X-0.450000X0.350000X-0.450000X-0.350000X0.450000X-0.350000X0.450000X0.350000X0*%
%ADD16C,1.500000*%
%ADD17R,1.200000X2.500000*%
%ADD18RoundRect,0.250000X0.350000X0.450000X-0.350000X0.450000X-0.350000X-0.450000X0.350000X-0.450000X0*%
%ADD19R,1.524000X1.524000*%
%ADD20C,1.524000*%
G04 APERTURE END LIST*
D10*
%TO.C,Sw1*%
X27770000Y-155100000D03*
D11*
X32850000Y-155100000D03*
D10*
X37930000Y-155100000D03*
D12*
X36660000Y-157640000D03*
X35390000Y-160180000D03*
X29040000Y-157640000D03*
X30310000Y-160180000D03*
%TD*%
D10*
%TO.C,Sw10*%
X84920000Y-80950000D03*
X95080000Y-80950000D03*
D11*
X90000000Y-80950000D03*
D12*
X93810000Y-83490000D03*
X92540000Y-86030000D03*
X87460000Y-86030000D03*
X86190000Y-83490000D03*
%TD*%
D13*
%TO.C,D10*%
X98400000Y-86050000D03*
X98400000Y-83550000D03*
%TD*%
D14*
%TO.C,REF\u002A\u002A*%
X77400000Y-162475000D03*
%TD*%
%TO.C,REF\u002A\u002A*%
X27000000Y-133000000D03*
%TD*%
D13*
%TO.C,D17*%
X136500000Y-124050000D03*
X136500000Y-121550000D03*
%TD*%
D11*
%TO.C,Sw2*%
X51900000Y-152100000D03*
D10*
X56980000Y-152100000D03*
X46820000Y-152100000D03*
D12*
X54440000Y-157180000D03*
X55710000Y-154640000D03*
X48090000Y-154640000D03*
X49360000Y-157180000D03*
%TD*%
D13*
%TO.C,D1*%
X41400000Y-155100000D03*
X41400000Y-157600000D03*
%TD*%
%TO.C,D5*%
X60300000Y-119050000D03*
X60300000Y-116550000D03*
%TD*%
D15*
%TO.C,R1*%
X41870000Y-143200000D03*
X41870000Y-145200000D03*
%TD*%
D13*
%TO.C,D2*%
X59900000Y-152150000D03*
X59900000Y-154650000D03*
%TD*%
D11*
%TO.C,Sw8*%
X70950000Y-108000000D03*
D10*
X76030000Y-108000000D03*
X65870000Y-108000000D03*
D12*
X74760000Y-110540000D03*
X73490000Y-113080000D03*
X68410000Y-113080000D03*
X67140000Y-110540000D03*
%TD*%
D13*
%TO.C,D12*%
X98400000Y-124100000D03*
X98400000Y-121600000D03*
%TD*%
D10*
%TO.C,Sw7*%
X76030000Y-88950000D03*
D11*
X70950000Y-88950000D03*
D10*
X65870000Y-88950000D03*
D12*
X73490000Y-94030000D03*
X74760000Y-91490000D03*
X67140000Y-91490000D03*
X68410000Y-94030000D03*
%TD*%
D14*
%TO.C,REF\u002A\u002A*%
X48400000Y-81425000D03*
%TD*%
D13*
%TO.C,D14*%
X117400000Y-111050000D03*
X117400000Y-108550000D03*
%TD*%
%TO.C,D8*%
X79300000Y-113050000D03*
X79300000Y-110550000D03*
%TD*%
%TO.C,D13*%
X117500000Y-87000000D03*
X117500000Y-89500000D03*
%TD*%
D11*
%TO.C,Sw15*%
X109050000Y-125050000D03*
D10*
X103970000Y-125050000D03*
X114130000Y-125050000D03*
D12*
X111590000Y-130130000D03*
X112860000Y-127590000D03*
X105240000Y-127590000D03*
X106510000Y-130130000D03*
%TD*%
D14*
%TO.C,REF\u002A\u002A*%
X122400000Y-79300000D03*
%TD*%
D16*
%TO.C,J2*%
X22875000Y-123000000D03*
X29875000Y-123000000D03*
D17*
X27475000Y-119750000D03*
X24475000Y-119750000D03*
X32575000Y-126250000D03*
X31475000Y-119750000D03*
%TD*%
D14*
%TO.C,REF\u002A\u002A*%
X109775000Y-144075000D03*
%TD*%
D10*
%TO.C,Sw5*%
X56980000Y-114000000D03*
D11*
X51900000Y-114000000D03*
D10*
X46820000Y-114000000D03*
D12*
X54440000Y-119080000D03*
X55710000Y-116540000D03*
X49360000Y-119080000D03*
X48090000Y-116540000D03*
%TD*%
D10*
%TO.C,Sw16*%
X123020000Y-100000000D03*
D11*
X128100000Y-100000000D03*
D10*
X133180000Y-100000000D03*
D12*
X131910000Y-102540000D03*
X130640000Y-105080000D03*
X124290000Y-102540000D03*
X125560000Y-105080000D03*
%TD*%
D18*
%TO.C,R5*%
X29200000Y-113650000D03*
X27200000Y-113650000D03*
%TD*%
D10*
%TO.C,Sw12*%
X95080000Y-119050000D03*
D11*
X90000000Y-119050000D03*
D10*
X84920000Y-119050000D03*
D12*
X92540000Y-124130000D03*
X93810000Y-121590000D03*
X86190000Y-121590000D03*
X87460000Y-124130000D03*
%TD*%
D13*
%TO.C,D6*%
X61000000Y-138250000D03*
X61000000Y-135750000D03*
%TD*%
%TO.C,D11*%
X98400000Y-105050000D03*
X98400000Y-102550000D03*
%TD*%
D15*
%TO.C,R3*%
X41870000Y-111560000D03*
X41870000Y-113560000D03*
%TD*%
D18*
%TO.C,R4*%
X29190000Y-115570000D03*
X27190000Y-115570000D03*
%TD*%
D13*
%TO.C,D7*%
X79400000Y-94000000D03*
X79400000Y-91500000D03*
%TD*%
D11*
%TO.C,Sw11*%
X90000000Y-100000000D03*
D10*
X84920000Y-100000000D03*
X95080000Y-100000000D03*
D12*
X92540000Y-105080000D03*
X93810000Y-102540000D03*
X87460000Y-105080000D03*
X86190000Y-102540000D03*
%TD*%
D14*
%TO.C,REF\u002A\u002A*%
X35000000Y-113000000D03*
%TD*%
D13*
%TO.C,D3*%
X79400000Y-149100000D03*
X79400000Y-151600000D03*
%TD*%
D10*
%TO.C,Sw17*%
X123020000Y-119050000D03*
X133180000Y-119050000D03*
D11*
X128100000Y-119050000D03*
D12*
X131910000Y-121590000D03*
X130640000Y-124130000D03*
X125560000Y-124130000D03*
X124290000Y-121590000D03*
%TD*%
D19*
%TO.C,U1*%
X24150000Y-91770000D03*
D20*
X24150000Y-94310000D03*
X24150000Y-96850000D03*
X24150000Y-99390000D03*
X24150000Y-101930000D03*
X24150000Y-104470000D03*
X24150000Y-107010000D03*
X39390000Y-107010000D03*
X39390000Y-104470000D03*
X39390000Y-101930000D03*
X39390000Y-99390000D03*
X39390000Y-96850000D03*
X39390000Y-94310000D03*
X39390000Y-91770000D03*
%TD*%
D13*
%TO.C,D16*%
X136600000Y-99900000D03*
X136600000Y-102400000D03*
%TD*%
%TO.C,D4*%
X60400000Y-100050000D03*
X60400000Y-97550000D03*
%TD*%
D10*
%TO.C,Sw3*%
X65870000Y-149100000D03*
D11*
X70950000Y-149100000D03*
D10*
X76030000Y-149100000D03*
D12*
X73490000Y-154180000D03*
X74760000Y-151640000D03*
X67140000Y-151640000D03*
X68410000Y-154180000D03*
%TD*%
D11*
%TO.C,Sw13*%
X109050000Y-86950000D03*
D10*
X103970000Y-86950000D03*
X114130000Y-86950000D03*
D12*
X112860000Y-89490000D03*
X111590000Y-92030000D03*
X106510000Y-92030000D03*
X105240000Y-89490000D03*
%TD*%
D13*
%TO.C,D18*%
X136500000Y-143150000D03*
X136500000Y-140650000D03*
%TD*%
D18*
%TO.C,R7*%
X24700000Y-113600000D03*
X22700000Y-113600000D03*
%TD*%
D11*
%TO.C,Sw9*%
X70950000Y-127050000D03*
D10*
X76030000Y-127050000D03*
X65870000Y-127050000D03*
D12*
X74760000Y-129590000D03*
X73490000Y-132130000D03*
X68410000Y-132130000D03*
X67140000Y-129590000D03*
%TD*%
D18*
%TO.C,R6*%
X24700000Y-115550000D03*
X22700000Y-115550000D03*
%TD*%
D13*
%TO.C,D9*%
X79400000Y-132150000D03*
X79400000Y-129650000D03*
%TD*%
D11*
%TO.C,Sw4*%
X51900000Y-94950000D03*
D10*
X56980000Y-94950000D03*
X46820000Y-94950000D03*
D12*
X54440000Y-100030000D03*
X55710000Y-97490000D03*
X49360000Y-100030000D03*
X48090000Y-97490000D03*
%TD*%
D13*
%TO.C,D15*%
X117600000Y-130050000D03*
X117600000Y-127550000D03*
%TD*%
D11*
%TO.C,Sw6*%
X51900000Y-133050000D03*
D10*
X56980000Y-133050000D03*
X46820000Y-133050000D03*
D12*
X55710000Y-135590000D03*
X54440000Y-138130000D03*
X49360000Y-138130000D03*
X48090000Y-135590000D03*
%TD*%
D10*
%TO.C,Sw18*%
X123020000Y-138100000D03*
D11*
X128100000Y-138100000D03*
D10*
X133180000Y-138100000D03*
D12*
X130640000Y-143180000D03*
X131910000Y-140640000D03*
X124290000Y-140640000D03*
X125560000Y-143180000D03*
%TD*%
D10*
%TO.C,Sw14*%
X114130000Y-106000000D03*
X103970000Y-106000000D03*
D11*
X109050000Y-106000000D03*
D12*
X111590000Y-111080000D03*
X112860000Y-108540000D03*
X106510000Y-111080000D03*
X105240000Y-108540000D03*
%TD*%
D15*
%TO.C,R2*%
X41450000Y-120025000D03*
X41450000Y-122025000D03*
%TD*%
D16*
%TO.C,J1*%
X29875000Y-123000000D03*
X22875000Y-123000000D03*
%TD*%
M02*
